<svg height="728" viewBox="0 0 1336 728" width="1336" xmlns="http://www.w3.org/2000/svg" xmlns:xlink="http://www.w3.org/1999/xlink"><linearGradient id="a" gradientUnits="objectBoundingBox" x1=".13" x2=".865" y2="1.278"><stop offset="0" stop-color="#68dea4"/><stop offset="1" stop-color="#843d95"/></linearGradient><g fill="url(#a)" opacity=".17" transform="translate(12.421 48.104)"><rect height="209" rx="27" transform="translate(-.421 160.896)" width="1187"/><rect height="213" rx="27" transform="translate(96.579 357.896)" width="993"/><rect height="221" rx="27" transform="translate(96.579 -.104)" width="780"/></g><g fill="#68dea4"><ellipse cx="1038" cy="116.5" rx="24" ry="32.5"/><ellipse cx="487" cy="42" rx="44" ry="42"/><circle cx="203.5" cy="685.5" r="42.5"/></g><ellipse cx="36.5" cy="605" fill="#ffd54a" rx="36.5" ry="38"/><ellipse cx="1291.5" cy="191" fill="#843d95" rx="44.5" ry="42"/><ellipse cx="388.5" cy="561" fill="#68dea4" rx="30.5" ry="30"/><ellipse cx="240" cy="313.5" fill="#843d95" rx="30" ry="32.5"/><circle cx="835" cy="698" fill="#843d95" r="30"/><path d="m57.135 0 57.135 102.844h-114.27z" fill="#ffd54a" transform="matrix(.8660254 .5 -.5 .8660254 768.712 187.595)"/><path d="m39.995 0 39.995 68.563h-79.99z" fill="#68dea4" transform="matrix(0 -1 1 0 158.278 112.143)"/><path d="m39.995 0 39.995 68.563h-79.99z" fill="#ffd54a" transform="matrix(0 1 -1 0 1198.144 409.247)"/><path d="m39.995 0 39.995 68.563h-79.99z" fill="#68dea4" transform="matrix(0 -1 1 0 535.372 660.643)"/><path d="m271.567 47.865h618.968v618.968h-618.968z" fill="none"/><path d="m36.379 13.67a12.379 12.379 0 1 0 12.38 12.379 12.379 12.379 0 0 0 -12.38-12.379z" fill="none" transform="translate(544.672 203.421)"/><path d="m24 33.379a12.379 12.379 0 1 0 12.379-12.379 12.379 12.379 0 0 0 -12.379 12.379z" fill="none" transform="translate(544.672 286.831)"/><path d="m376.535 107.387-49.517-30.7h-206.983v-21.17a49.517 49.517 0 0 0 -49.518-49.517 49.517 49.517 0 0 0 -49.517 49.517v95.321h306.389l49.517-30.825a7.18 7.18 0 0 0 -.371-12.627zm-306.018 18.94a12.379 12.379 0 1 1 12.383-12.379 12.379 12.379 0 0 1 -12.383 12.379z" transform="translate(510.534 116.141)"/><path d="m260.377 19h-207.354l-49.518 30.825a7.18 7.18 0 0 0 0 12.379l49.518 30.825h207.354v230.871a4.333 4.333 0 0 0 7.923 2.228l22.9-35.653a4.457 4.457 0 0 1 7.428 0l8.789 15.969a4.333 4.333 0 0 0 6.066 1.486l14.979-9.284a4.209 4.209 0 0 1 5.818 1.362l16.712 25.873a4.333 4.333 0 0 0 7.923-2.228v-304.653zm61.9 37.138a12.379 12.379 0 1 1 -12.379-12.379 12.379 12.379 0 0 1 12.376 12.379z" transform="translate(271.157 264.073)"/></svg>