<svg height="728" viewBox="0 0 1336 728" width="1336" xmlns="http://www.w3.org/2000/svg" xmlns:xlink="http://www.w3.org/1999/xlink"><linearGradient id="a" gradientUnits="objectBoundingBox" x1=".13" x2=".865" y2="1.278"><stop offset="0" stop-color="#68dea4"/><stop offset="1" stop-color="#843d95"/></linearGradient><g fill="url(#a)" opacity=".17" transform="translate(12.559 48.238)"><rect height="209" rx="27" transform="translate(.442 160.762)" width="1190"/><rect height="213" rx="27" transform="translate(100.442 357.762)" width="990"/><rect height="221" rx="27" transform="translate(100.442 -.238)" width="780"/></g><g fill="#68dea4"><ellipse cx="1040" cy="116.5" rx="26" ry="32.5"/><circle cx="489" cy="42" r="42"/><ellipse cx="205.5" cy="686" rx="44.5" ry="42"/></g><ellipse cx="36.5" cy="605.5" fill="#ffd54a" rx="36.5" ry="38.5"/><ellipse cx="1293.5" cy="191" fill="#843d95" rx="42.5" ry="42"/><ellipse cx="390.5" cy="563" fill="#68dea4" rx="32.5" ry="32"/><ellipse cx="242" cy="316" fill="#843d95" rx="32" ry="30"/><circle cx="835" cy="698" fill="#843d95" r="30"/><path d="m57.135 0 57.135 102.844h-114.27z" fill="#ffd54a" transform="matrix(.8660254 .5 -.5 .8660254 770.429 188.354)"/><path d="m39.995 0 39.995 68.563h-79.99z" fill="#68dea4" transform="matrix(0 -1 1 0 159.995 112.902)"/><path d="m39.995 0 39.995 68.563h-79.99z" fill="#ffd54a" transform="matrix(0 1 -1 0 1199.861 410.006)"/><path d="m39.995 0 39.995 68.563h-79.99z" fill="#68dea4" transform="matrix(0 -1 1 0 537.089 661.402)"/><path d="m371 84.001h571v572h-571z" fill="none"/><path d="m562.175 378.978c-14.17-2.514-42.966-10.284-45.708-11.427a154.38 154.38 0 0 1 -84.218-50.393 259.5 259.5 0 0 1 -28.8-46.394c-15.655-31.082-28-63.992-47.994-92.331s-49.822-52.45-84.446-54.622a268.655 268.655 0 0 0 -48.679 4.342 125.7 125.7 0 0 1 -64.33-7.77 118.5 118.5 0 0 1 -51.2-48.794 204.773 204.773 0 0 1 -14.965-31.082c-2.4-5.942-4.571-12.341-6.514-18.626-.686-2.4-1.486-8.342-2.628-13.141a79.99 79.99 0 0 1 -61.249 28.8 86.5 86.5 0 0 1 -21.254-2.975c.914 2.057 1.828 3.885 1.943 4.342 3.085 7.542 6.171 15.084 9.6 22.854a464.181 464.181 0 0 0 22.854 44.223 197 197 0 0 0 66.963 70.277h.8a201.117 201.117 0 0 0 95.645 23.768c33.139.914 66.277-2.971 99.416-5.256a30.968 30.968 0 0 1 19.083 2.971 30.739 30.739 0 0 1 9.256 12.113c25.6 49.022 45.708 103.53 92.1 137.125 41.25 29.368 91.417 41.595 141.35 49.479a8.8 8.8 0 0 0 10.17-7.656 8.684 8.684 0 0 0 -7.2-9.827z" fill="#191d1d" transform="translate(373.378 175.468)"/><path d="m82.161 17.031s-40.224-34.282-82.161 26.053a74.619 74.619 0 0 0 82.161-26.053z" fill="#191d1d" transform="translate(371.396 160.778)"/></svg>