<svg xmlns="http://www.w3.org/2000/svg" viewBox="0 0 46.55 50"><defs><style>.cls-1{fill:none;}</style></defs><title>alarm</title><g id="Layer_2" data-name="Layer 2"><g id="Layer_1-2" data-name="Layer 1"><polygon class="cls-1" points="25.43 13.01 21.33 13.01 21.33 27.2 27.86 40.47 31.55 38.66 25.43 26.24 25.43 13.01"/><path d="M39.74,10.26A23.28,23.28,0,0,0,6.81,43.18,23.28,23.28,0,0,0,39.74,10.26ZM27.86,40.47,21.33,27.2V13h4.1V26.24l6.12,12.42Z"/><path d="M12.3,3.59h0l-1-1.79L10.3,0A38.58,38.58,0,0,0,1.79,6.54L4.86,9.28A34.62,34.62,0,0,1,12.3,3.59Z"/><path d="M41.74,9.28,44.8,6.55A38.22,38.22,0,0,0,36.3,0l-2,3.59A34.66,34.66,0,0,1,41.74,9.28Z"/></g></g></svg>