<svg xmlns="http://www.w3.org/2000/svg" viewBox="0 0 50 50"><defs><style>.cls-1{fill:none;}</style></defs><title>alarm-thin-outline</title><g id="Layer_2" data-name="Layer 2"><g id="Layer_1-2" data-name="Layer 1"><rect class="cls-1" width="50" height="50"/><path class="cls-1" d="M25,5.36A21.67,21.67,0,1,0,46.67,27,21.69,21.69,0,0,0,25,5.36Zm6.39,35.9L24.46,27.18V12.12h1.31V26.87l6.8,13.81Z"/><path d="M25,4.05A23,23,0,1,0,48,27,23,23,0,0,0,25,4.05Zm0,44.64A21.67,21.67,0,1,1,46.67,27,21.69,21.69,0,0,1,25,48.69Z"/><path d="M4.51,7.68a37.7,37.7,0,0,1,8.22-6.29l.42-.24L12.51,0l-.42.24A39.11,39.11,0,0,0,3.53,6.81l-.32.36,1,.87Z"/><path d="M45.54,7.68l.32.37,1-.87-.33-.37A38.79,38.79,0,0,0,38,.24L37.54,0,36.9,1.14l.42.24A37.89,37.89,0,0,1,45.54,7.68Z"/><polygon points="25.77 12.12 24.46 12.12 24.46 27.18 31.39 41.26 32.57 40.68 25.77 26.87 25.77 12.12"/></g></g></svg>