<svg xmlns="http://www.w3.org/2000/svg" viewBox="0 0 50 50"><defs><style>.cls-1{fill:none;}.cls-2{fill:#0a0a0a;}</style></defs><title>bag</title><g id="Layer_2" data-name="Layer 2"><g id="Layer_1-2" data-name="Layer 1"><rect class="cls-1" width="50" height="50"/><path class="cls-2" d="M38.12,11.6h0a.39.39,0,0,1-.39-.39v-6A5.16,5.16,0,0,0,32.56,0H17.44a5.16,5.16,0,0,0-5.16,5.17v6a.39.39,0,0,1-.39.39h0a2.52,2.52,0,0,0-2.51,2.51V44.63a2.51,2.51,0,0,0,2.51,2.51h1.89a1.75,1.75,0,0,0,0,.32,2.55,2.55,0,0,0,5.09,0c0-.11,0-.21,0-.32H31.21c0,.11,0,.21,0,.32a2.55,2.55,0,0,0,5.09,0,1.75,1.75,0,0,0,0-.32h1.89a2.51,2.51,0,0,0,2.51-2.51V14.11A2.52,2.52,0,0,0,38.12,11.6ZM33.82,11a.66.66,0,0,1-.65.65H29.1a1.38,1.38,0,0,0-1.38-1.3H22.28a1.38,1.38,0,0,0-1.38,1.3H16.83a.65.65,0,0,1-.65-.65V5.17a1.26,1.26,0,0,1,1.26-1.26H32.56a1.26,1.26,0,0,1,1.26,1.26Z"/></g></g></svg>