<svg xmlns="http://www.w3.org/2000/svg" viewBox="0 0 40.72 51"><title>bell-outline</title><g id="Layer_2" data-name="Layer 2"><g id="Layer_1-2" data-name="Layer 1"><path d="M40.72,46.67l-2.81-5.54a16.08,16.08,0,0,1-1.71-7.65l.38-13.3a16.21,16.21,0,0,0-13.66-16V2.56A2.54,2.54,0,0,0,22.17.75,2.56,2.56,0,0,0,17.8,2.56v1.6a16.22,16.22,0,0,0-13.66,16l.38,13.29a16.08,16.08,0,0,1-1.71,7.65L0,46.67H15.59a4.8,4.8,0,0,0,9.55,0ZM6,33.44,5.63,20.17a14.73,14.73,0,0,1,29.46,0l-.38,13.28a17.6,17.6,0,0,0,1.87,8.37l1.72,3.38H2.42l1.71-3.38A17.49,17.49,0,0,0,6,33.44ZM19.29,2.56a1.07,1.07,0,0,1,1.07-1.07,1.1,1.1,0,0,1,.76.31,1.07,1.07,0,0,1,.31.76V4c-.36,0-.72,0-1.07,0s-.71,0-1.07,0ZM17.08,46.67h6.57a3.32,3.32,0,0,1-6.57,0Z"/></g></g></svg>