<svg xmlns="http://www.w3.org/2000/svg" viewBox="0 0 50 31.72"><defs><style>.cls-1{fill:#0a0a0a;}</style></defs><title>bicycle</title><g id="Layer_2" data-name="Layer 2"><g id="Layer_1-2" data-name="Layer 1"><path class="cls-1" d="M40.38,14h0a.53.53,0,0,1-.51-.39l-2.43-9.5h0A5.82,5.82,0,0,0,35.22.76C34.29.13,32.3-.68,29.41,1l1.72,2.55a2.61,2.61,0,0,1,1.93-.46,2.51,2.51,0,0,1,1.15,1.52l.55,2.13a.3.3,0,0,1,0,.24l-.56.69a.24.24,0,0,1-.14.1L21.33,11.08a.28.28,0,0,1-.33-.16l-.63-1.58h1.42a1.58,1.58,0,0,0,1.64-1.52A1.58,1.58,0,0,0,21.79,6.3H14.92a1.59,1.59,0,0,0-1.65,1.52,1.59,1.59,0,0,0,1.65,1.52h2l.82,2a.28.28,0,0,1-.05.29l-3,3.42a.26.26,0,0,1-.33.06A10.29,10.29,0,0,0,9.62,14C4.31,14,0,18,0,22.85s4.31,8.87,9.62,8.87a9.41,9.41,0,0,0,9.47-7.37H20.8a.29.29,0,0,1,.26.18,3.24,3.24,0,0,0,2.16,1.79V27h-.34a.75.75,0,1,0,0,1.5h2.5a.75.75,0,1,0,0-1.5H25v-.69a3.1,3.1,0,0,0,2.41-2.94,2.77,2.77,0,0,0-.4-1.45.29.29,0,0,1,0-.32l8-10a.55.55,0,0,1,1,.21l.67,2.61a.27.27,0,0,1-.17.32,8.89,8.89,0,0,0-5.79,8.14c0,4.9,4.31,8.87,9.62,8.87s9.62-4,9.62-8.87S45.69,14,40.38,14Zm-10-1.64-5.58,7a.29.29,0,0,1-.48-.07l-2-5a.28.28,0,0,1,.19-.38l7.58-2A.28.28,0,0,1,30.41,12.34Zm-8.72,9,0,.05H19.09a8.45,8.45,0,0,0-1.89-3.95.29.29,0,0,1,0-.37l1.6-1.84a.27.27,0,0,1,.46.07Z"/></g></g></svg>