<svg xmlns="http://www.w3.org/2000/svg" viewBox="0 0 50 32.25"><defs><style>.cls-1{fill:#212121;}</style></defs><title>bicycle-outline</title><g id="Layer_2" data-name="Layer 2"><g id="Layer_1-2" data-name="Layer 1"><path class="cls-1" d="M19.34,14.66a1,1,0,0,0-.91.33l-1.55,1.8a1,1,0,0,0,0,1.29,7.6,7.6,0,0,1,1.68,3.51l.11.59h3.1l.39,0,.45-.67-2.5-6.22A1,1,0,0,0,19.34,14.66Zm1.39,6.07h-.88a9.23,9.23,0,0,0-1.63-3.29L19,16.5Z"/><path class="cls-1" d="M40.1,13.58,37.78,4.51l-.08-.25A6.43,6.43,0,0,0,35.33.87c-1-.71-3.26-1.62-6.41.18l-.68.39,2.48,3.69.59-.34c.73-.42,1.14-.45,1.26-.4a1.74,1.74,0,0,1,.67,1l.48,1.84-.3.38-11.78,3.1-.06-.17h.3a2.27,2.27,0,0,0,2.32-2.2,2.27,2.27,0,0,0-2.32-2.2H15.21a2.27,2.27,0,0,0-2.32,2.2,2.27,2.27,0,0,0,2.32,2.2h1.42l.51,1.27-2.45,2.84a10.66,10.66,0,0,0-4.62-1.05C4.52,13.58,0,17.77,0,22.92s4.52,9.33,10.07,9.33a9.85,9.85,0,0,0,9.78-7.15h.79A3.71,3.71,0,0,0,22,26.53a1.44,1.44,0,0,0-.59,1.15,1.48,1.48,0,0,0,1.51,1.45h2.43a1.48,1.48,0,0,0,1.51-1.45,1.43,1.43,0,0,0-.58-1.15,3.69,3.69,0,0,0,1.81-3.1,3.4,3.4,0,0,0-.35-1.5l7.36-9.22.46,1.79a9.31,9.31,0,0,0-5.71,8.42c0,5.15,4.51,9.33,10.06,9.33S50,28.07,50,22.92,45.58,13.66,40.1,13.58Zm-3.61,2.11a1,1,0,0,0,.6-1.17L36.44,12a1.28,1.28,0,0,0-1-.93l-.26,0a1.26,1.26,0,0,0-1,.47l-7.78,9.75a1,1,0,0,0-.07,1.13,2,2,0,0,1,.29,1,2.31,2.31,0,0,1-1.81,2.16l-.54.14v.95l-.11,0h.11v.95H24v-.95h.11l-.11,0v-.95l-.54-.14a2.46,2.46,0,0,1-1.63-1.34,1,1,0,0,0-.91-.6H18.66l-.11.6a8.39,8.39,0,0,1-8.48,6.55c-4.75,0-8.62-3.53-8.62-7.88S5.32,15,10.07,15a9.29,9.29,0,0,1,4.27,1,1,1,0,0,0,1.21-.22l2.87-3.32a1,1,0,0,0,.17-1l-1-2.43H15.21a.82.82,0,0,1-.87-.75.82.82,0,0,1,.87-.75h6.67a.82.82,0,0,1,.87.75.82.82,0,0,1-.87.75H19.43l1,2.53a1,1,0,0,0,1.17.59L33.93,9a1,1,0,0,0,.53-.34L35,7.94a1,1,0,0,0,.19-.87L34.64,5A3.16,3.16,0,0,0,33.09,3a2.48,2.48,0,0,0-1.9.19L30.34,2a4.11,4.11,0,0,1,4.17.12,5,5,0,0,1,1.84,2.78l.17.71h0l2.19,8.54a1.23,1.23,0,0,0,1.19.93c4.75,0,8.62,3.54,8.62,7.89s-3.87,7.88-8.62,7.88-8.61-3.53-8.61-7.88A7.9,7.9,0,0,1,36.49,15.69Z"/><path class="cls-1" d="M29.79,11.58l-7.37,1.94a1,1,0,0,0-.67,1.33l1.95,4.86a1,1,0,0,0,.78.61h.15A1,1,0,0,0,25.4,20l5.42-6.79a1,1,0,0,0-1-1.59Zm-1,1.82-4,5-1.47-3.65,5.24-1.38-.21.22Z"/></g></g></svg>