<svg xmlns="http://www.w3.org/2000/svg" viewBox="0 0 50 42.45"><defs><style>.cls-1{fill:none;}</style></defs><title>camera</title><g id="Layer_2" data-name="Layer 2"><g id="Layer_1-2" data-name="Layer 1"><path class="cls-1" d="M25,11A10.28,10.28,0,1,0,35.28,21.23,10.29,10.29,0,0,0,25,11Zm0,17.88a7.61,7.61,0,1,1,7.61-7.6A7.6,7.6,0,0,1,25,28.83Z"/><path d="M43.73,1.58H18.13a.07.07,0,0,1-.08-.07L18,0H10.73V1.44a.08.08,0,0,1-.08.08l-4.38.06A6.27,6.27,0,0,0,0,7.85V36.18a6.27,6.27,0,0,0,6.27,6.27H43.73A6.27,6.27,0,0,0,50,36.18V7.85A6.27,6.27,0,0,0,43.73,1.58ZM25,31.51A10.28,10.28,0,1,1,35.28,21.23,10.3,10.3,0,0,1,25,31.51Z"/><circle cx="25" cy="21.23" r="7.61"/></g></g></svg>