<svg xmlns="http://www.w3.org/2000/svg" viewBox="0 0 50 50"><defs><style>.cls-1{fill:none;}</style></defs><title>cart-outline</title><g id="Layer_2" data-name="Layer 2"><g id="Layer_1-2" data-name="Layer 1"><rect class="cls-1" width="50" height="50"/><path d="M8.67,41.39a2.05,2.05,0,0,1-2-2.06V22.75a2.06,2.06,0,0,1,4.11,0V39.33A2.06,2.06,0,0,1,8.67,41.39Zm0-19.71A1.07,1.07,0,0,0,7.6,22.75V39.33a1.08,1.08,0,1,0,2.15,0V22.75A1.07,1.07,0,0,0,8.67,21.68Z"/><path d="M16.84,41.39a2.06,2.06,0,0,1-2.06-2.06V22.75a2.06,2.06,0,0,1,4.11,0V39.33A2.05,2.05,0,0,1,16.84,41.39Zm0-19.71a1.07,1.07,0,0,0-1.08,1.07V39.33a1.08,1.08,0,1,0,2.15,0V22.75A1.07,1.07,0,0,0,16.84,21.68Z"/><path d="M33.16,41.39a2.05,2.05,0,0,1-2-2.06V22.75a2.06,2.06,0,0,1,4.11,0V39.33A2.06,2.06,0,0,1,33.16,41.39Zm0-19.71a1.07,1.07,0,0,0-1.07,1.07V39.33a1.08,1.08,0,1,0,2.15,0V22.75A1.07,1.07,0,0,0,33.16,21.68Z"/><path d="M44,14.61H6L25,1.37Zm-34.89-1H40.88L25,2.56Z"/><path d="M25,41.39A2.05,2.05,0,0,1,23,39.33V22.75a2.05,2.05,0,0,1,4.1,0V39.33A2.05,2.05,0,0,1,25,41.39Zm0-19.71a1.07,1.07,0,0,0-1.07,1.07V39.33a1.07,1.07,0,1,0,2.14,0V22.75A1.07,1.07,0,0,0,25,21.68Z"/><path d="M41.33,41.39a2.06,2.06,0,0,1-2.06-2.06V22.75a2.06,2.06,0,0,1,4.11,0V39.33A2.05,2.05,0,0,1,41.33,41.39Zm0-19.71a1.07,1.07,0,0,0-1.08,1.07V39.33a1.08,1.08,0,1,0,2.15,0V22.75A1.07,1.07,0,0,0,41.33,21.68Z"/><path d="M41.76,48.69H8.24a5.33,5.33,0,0,1-5.3-4.75L.31,19.81a5.33,5.33,0,0,1,5.3-5.91H44.39a5.33,5.33,0,0,1,5.3,5.91L47.06,43.94A5.33,5.33,0,0,1,41.76,48.69ZM5.61,14.88A4.36,4.36,0,0,0,1.28,19.7L3.92,43.83a4.34,4.34,0,0,0,4.32,3.88H41.76a4.34,4.34,0,0,0,4.32-3.88L48.72,19.7a4.36,4.36,0,0,0-4.33-4.82ZM41.33,41.66A2.33,2.33,0,0,1,39,39.33V22.75a2.33,2.33,0,0,1,4.66,0V39.33A2.33,2.33,0,0,1,41.33,41.66Zm0-20.26A1.35,1.35,0,0,0,40,22.75V39.33a1.35,1.35,0,0,0,2.7,0V22.75A1.36,1.36,0,0,0,41.33,21.4ZM33.16,41.66a2.33,2.33,0,0,1-2.33-2.33V22.75a2.33,2.33,0,0,1,4.66,0V39.33A2.33,2.33,0,0,1,33.16,41.66Zm0-20.26a1.36,1.36,0,0,0-1.35,1.35V39.33a1.35,1.35,0,0,0,2.7,0V22.75A1.35,1.35,0,0,0,33.16,21.4ZM25,41.66a2.33,2.33,0,0,1-2.33-2.33V22.75a2.33,2.33,0,0,1,4.66,0V39.33A2.33,2.33,0,0,1,25,41.66ZM25,21.4a1.36,1.36,0,0,0-1.35,1.35V39.33a1.35,1.35,0,0,0,2.7,0V22.75A1.36,1.36,0,0,0,25,21.4ZM16.84,41.66a2.33,2.33,0,0,1-2.33-2.33V22.75a2.33,2.33,0,0,1,4.66,0V39.33A2.33,2.33,0,0,1,16.84,41.66Zm0-20.26a1.35,1.35,0,0,0-1.35,1.35V39.33a1.35,1.35,0,0,0,2.7,0V22.75A1.36,1.36,0,0,0,16.84,21.4ZM8.67,41.66a2.33,2.33,0,0,1-2.33-2.33V22.75a2.33,2.33,0,0,1,4.66,0V39.33A2.33,2.33,0,0,1,8.67,41.66Zm0-20.26a1.36,1.36,0,0,0-1.35,1.35V39.33a1.35,1.35,0,0,0,2.7,0V22.75A1.35,1.35,0,0,0,8.67,21.4Z"/><path d="M48.2,15.82a5.09,5.09,0,0,0-3.81-1.7H42.93L25.08,1.69,25,1.63,7.07,14.12H5.61A5.12,5.12,0,0,0,.52,19.79L3.15,43.92a5.11,5.11,0,0,0,5.09,4.56H41.76a5.11,5.11,0,0,0,5.09-4.56l2.63-24.13A5.1,5.1,0,0,0,48.2,15.82ZM25,2,42.44,14.12H7.56ZM49.2,19.76,46.57,43.89a4.84,4.84,0,0,1-4.81,4.31H8.24a4.84,4.84,0,0,1-4.81-4.31L.8,19.76a4.84,4.84,0,0,1,4.81-5.37H44.39A4.84,4.84,0,0,1,49.2,19.76Z"/><path d="M41.76,49H8.24a5.59,5.59,0,0,1-5.57-5L0,19.84a5.62,5.62,0,0,1,5.58-6.22H6.92L25,1,43.08,13.62h1.31a5.63,5.63,0,0,1,4.18,1.87h0A5.62,5.62,0,0,1,50,19.84L47.33,44A5.59,5.59,0,0,1,41.76,49ZM5.61,14.88A4.36,4.36,0,0,0,1.28,19.7L3.92,43.83a4.34,4.34,0,0,0,4.32,3.88H41.76a4.34,4.34,0,0,0,4.32-3.88L48.72,19.7a4.36,4.36,0,0,0-4.33-4.82Zm3.51-1.26H40.88L25,2.56Z"/><path d="M8.67,20.91a1.85,1.85,0,0,0-1.84,1.84V39.33a1.84,1.84,0,0,0,3.68,0V22.75A1.84,1.84,0,0,0,8.67,20.91Zm1.57,18.42a1.57,1.57,0,1,1-3.13,0V22.75a1.57,1.57,0,0,1,3.13,0Z"/><path d="M8.67,41.66a2.33,2.33,0,0,1-2.33-2.33V22.75a2.33,2.33,0,0,1,4.66,0V39.33A2.33,2.33,0,0,1,8.67,41.66Zm0-20A1.07,1.07,0,0,0,7.6,22.75V39.33a1.08,1.08,0,1,0,2.15,0V22.75A1.07,1.07,0,0,0,8.67,21.68Z"/><path d="M16.84,20.91A1.84,1.84,0,0,0,15,22.75V39.33a1.84,1.84,0,0,0,3.68,0V22.75A1.85,1.85,0,0,0,16.84,20.91ZM18.4,39.33a1.57,1.57,0,1,1-3.13,0V22.75a1.57,1.57,0,0,1,3.13,0Z"/><path d="M16.84,41.66a2.33,2.33,0,0,1-2.33-2.33V22.75a2.33,2.33,0,0,1,4.66,0V39.33A2.33,2.33,0,0,1,16.84,41.66Zm0-20a1.07,1.07,0,0,0-1.08,1.07V39.33a1.08,1.08,0,1,0,2.15,0V22.75A1.07,1.07,0,0,0,16.84,21.68Z"/><path d="M25,20.91a1.84,1.84,0,0,0-1.84,1.84V39.33a1.84,1.84,0,0,0,3.68,0V22.75A1.85,1.85,0,0,0,25,20.91Zm1.56,18.42A1.56,1.56,0,0,1,25,40.9h0a1.56,1.56,0,0,1-1.56-1.57V22.75A1.56,1.56,0,0,1,25,21.19h0a1.56,1.56,0,0,1,1.56,1.56Z"/><path d="M25,41.66a2.33,2.33,0,0,1-2.33-2.33V22.75a2.33,2.33,0,0,1,4.66,0V39.33A2.33,2.33,0,0,1,25,41.66Zm0-20a1.07,1.07,0,0,0-1.07,1.07V39.33a1.07,1.07,0,1,0,2.14,0V22.75A1.07,1.07,0,0,0,25,21.68Z"/><path d="M33.16,20.91a1.85,1.85,0,0,0-1.84,1.84V39.33a1.84,1.84,0,0,0,3.68,0V22.75A1.84,1.84,0,0,0,33.16,20.91Zm1.57,18.42a1.57,1.57,0,1,1-3.13,0V22.75a1.57,1.57,0,0,1,3.13,0Z"/><path d="M33.16,41.66a2.33,2.33,0,0,1-2.33-2.33V22.75a2.33,2.33,0,0,1,4.66,0V39.33A2.33,2.33,0,0,1,33.16,41.66Zm0-20a1.07,1.07,0,0,0-1.07,1.07V39.33a1.08,1.08,0,1,0,2.15,0V22.75A1.07,1.07,0,0,0,33.16,21.68Z"/><path d="M41.33,20.91a1.84,1.84,0,0,0-1.84,1.84V39.33a1.84,1.84,0,0,0,3.68,0V22.75A1.85,1.85,0,0,0,41.33,20.91Zm1.56,18.42a1.57,1.57,0,1,1-3.13,0V22.75a1.57,1.57,0,0,1,3.13,0Z"/><path d="M41.33,41.66A2.33,2.33,0,0,1,39,39.33V22.75a2.33,2.33,0,0,1,4.66,0V39.33A2.33,2.33,0,0,1,41.33,41.66Zm0-20a1.07,1.07,0,0,0-1.08,1.07V39.33a1.08,1.08,0,1,0,2.15,0V22.75A1.07,1.07,0,0,0,41.33,21.68Z"/></g></g></svg>