<svg xmlns="http://www.w3.org/2000/svg" viewBox="0 0 51 50"><defs><style>.cls-1{fill:none;}</style></defs><title>cloud-outline</title><g id="Layer_2" data-name="Layer 2"><g id="Layer_1-2" data-name="Layer 1"><rect class="cls-1" x="0.5" width="50" height="50"/><path class="cls-1" d="M33.37,37a9.81,9.81,0,0,0,16.38-7.29,9.87,9.87,0,0,0-9.63-9.82h-.28l-.21-.25A9.86,9.86,0,0,0,30,14.73l-.29,0-.24-.23a9.91,9.91,0,0,0-7.94-4,9.79,9.79,0,0,0-9.76,8.8l-.05.57h-.63a9.82,9.82,0,0,0,0,19.63,9.73,9.73,0,0,0,7-2.94l.45-.45.44.46A9.83,9.83,0,0,0,32.53,37l.42-.38Z"/><path d="M47.83,21.93a11,11,0,0,0-7.34-3.3,11.08,11.08,0,0,0-10.31-5.17,11.06,11.06,0,0,0-19.61,5.17,11.06,11.06,0,1,0,7.94,19.23,11.08,11.08,0,0,0,14.44.4A11.06,11.06,0,0,0,47.83,21.93ZM26,39.49a9.75,9.75,0,0,1-7-2.93l-.44-.46-.45.45A9.82,9.82,0,0,1,1.25,29.68a9.83,9.83,0,0,1,9.81-9.82h.63l.05-.57a9.79,9.79,0,0,1,9.76-8.8,9.91,9.91,0,0,1,7.94,4l.24.23.29,0a9.86,9.86,0,0,1,9.66,4.88l.21.25h.28a9.82,9.82,0,0,1-.18,19.63A9.75,9.75,0,0,1,33.37,37L33,36.59l-.42.38A9.77,9.77,0,0,1,26,39.49Z"/></g></g></svg>