<svg xmlns="http://www.w3.org/2000/svg" viewBox="0 0 50 49.33"><defs><style>.cls-1{fill:none;}.cls-2{fill:#212121;}</style></defs><title>danger-outline</title><g id="Layer_2" data-name="Layer 2"><g id="Layer_1-2" data-name="Layer 1"><rect class="cls-1" x="0.33" width="49.33" height="49.33"/><path class="cls-2" d="M50,48,26.34,24.33l7.38-7.39,2.72,2.72L44.61,8.28,49.33,0,41.05,4.72,29.67,12.89l2.71,2.71L25,23,17.61,15.6l2.72-2.71L9,4.72.67,0,5.39,8.28l8.17,11.38,2.71-2.72,7.39,7.39L0,48l1.34,1.34L25,25.67,48.66,49.33ZM42.08,6.32l2.17-1.24L43,7.25,36.2,16.74l-1.63-1.63-.35-.35-1.63-1.63ZM13.8,16.74,7,7.25,5.75,5.08,7.92,6.32l9.49,6.81-1.63,1.63-.35.35Z"/></g></g></svg>