<svg xmlns="http://www.w3.org/2000/svg" viewBox="0 0 50 50"><defs><style>.cls-1{fill:none;}</style></defs><title>direction</title><g id="Layer_2" data-name="Layer 2"><g id="Layer_1-2" data-name="Layer 1"><rect class="cls-1" width="50" height="50"/><path class="cls-1" d="M25,13.67a1,1,0,1,0,1,1A1,1,0,0,0,25,13.67Z"/><path class="cls-1" d="M24,22a1,1,0,1,0,1-1A1,1,0,0,0,24,22Z"/><path d="M49.72,14.19l-4-2.48H29V10A4,4,0,0,0,25,6h0A4,4,0,0,0,21,10v7.7H45.75l4-2.49A.58.58,0,0,0,49.72,14.19ZM25,15.72a1,1,0,1,1,1-1A1,1,0,0,1,25,15.72Z"/><path d="M21,19H4.25l-4,2.49a.58.58,0,0,0,0,1l4,2.49H21V43.63a.35.35,0,0,0,.64.18l1.85-2.88a.36.36,0,0,1,.6,0l.71,1.29a.35.35,0,0,0,.49.12l1.21-.75a.34.34,0,0,1,.47.11l1.35,2.09a.35.35,0,0,0,.64-.18V19H21Zm5,3a1,1,0,1,1-1-1A1,1,0,0,1,26,22Z"/></g></g></svg>