<svg xmlns="http://www.w3.org/2000/svg" viewBox="0 0 50 50"><defs><style>.cls-1{fill:none;}</style></defs><title>dislike</title><g id="Layer_2" data-name="Layer 2"><g id="Layer_1-2" data-name="Layer 1"><rect class="cls-1" width="50" height="50"/><path d="M16.34,6a5,5,0,0,0-5.52-4.23L4.35,2A5,5,0,0,0,0,6.9V25.33a5,5,0,0,0,5,5l8.77-.1a5,5,0,0,0,4.85-5.65Z"/><path d="M47.81,16.28c-1.12-5.34-3.7-14-8.71-14.6H22.55a4.84,4.84,0,0,0-4.79,5.53l3.35,23.15a7.36,7.36,0,0,0,2.36,4.41l14.41,13a2.41,2.41,0,0,0,3.84-2.56l-8-14.91H45.49C52.83,30.29,49.36,23.68,47.81,16.28Z"/></g></g></svg>