<svg xmlns="http://www.w3.org/2000/svg" viewBox="0 0 50 50"><defs><style>.cls-1{fill:none;}</style></defs><title>dollar</title><g id="Layer_2" data-name="Layer 2"><g id="Layer_1-2" data-name="Layer 1"><rect class="cls-1" width="50" height="50"/><path class="cls-1" d="M21.23,19.33c0,1.15.76,1.92,1.94,2.57v-5A2.68,2.68,0,0,0,21.23,19.33Z"/><path class="cls-1" d="M26.83,27.39v5.83c1.88-.4,2.94-1.57,2.94-2.95S28.68,28.12,26.83,27.39Z"/><path d="M33.7,30.22c0-4.14-2.68-5.19-6.87-6.78V16.86A9.59,9.59,0,0,1,30.93,19l2-3a11.9,11.9,0,0,0-6.1-2.73V10.62H23.17v2.67c-3.47.62-5.87,3-5.87,6,0,3.83,2.59,5.48,5.87,6.73v7.11A9.39,9.39,0,0,1,18.3,30.6l-2,2.92a13.08,13.08,0,0,0,6.87,3.19v2.67h3.66V36.79C31.43,36.31,33.7,33.52,33.7,30.22ZM21.23,19.33a2.68,2.68,0,0,1,1.94-2.42v5C22,21.25,21.23,20.48,21.23,19.33Zm5.6,13.89V27.39c1.85.73,2.94,1.45,2.94,2.88S28.71,32.82,26.83,33.22Z"/></g></g></svg>