<svg xmlns="http://www.w3.org/2000/svg" viewBox="0 0 48.66 50"><defs><style>.cls-1{fill:none;}</style></defs><title>filter-thin-outline</title><g id="Layer_2" data-name="Layer 2"><g id="Layer_1-2" data-name="Layer 1"><rect class="cls-1" y="0.67" width="48.66" height="48.66"/><path class="cls-1" d="M41,2a1.18,1.18,0,0,0-1-.59H8.69a1.19,1.19,0,0,0-1,1.78L21,26.32V47.46l6.68-3.93V26.32l.06-.11L41,3.23A1.2,1.2,0,0,0,41,2Z"/><path d="M42.26,1.32A2.62,2.62,0,0,0,40,0H8.69A2.59,2.59,0,0,0,6.41,1.32,2.6,2.6,0,0,0,6.41,4L19.54,26.71V50l9.58-5.64V26.71L42.26,4A2.65,2.65,0,0,0,42.26,1.32ZM27.73,26.21l-.06.11V43.53L21,47.46V26.32L7.66,3.23a1.19,1.19,0,0,1,1-1.78H40A1.18,1.18,0,0,1,41,2a1.2,1.2,0,0,1,0,1.19Z"/></g></g></svg>