<svg xmlns="http://www.w3.org/2000/svg" viewBox="0 0 50 50"><defs><style>.cls-1{fill:none;}</style></defs><title>group</title><g id="Layer_2" data-name="Layer 2"><g id="Layer_1-2" data-name="Layer 1"><rect class="cls-1" width="50" height="50" transform="translate(0 50) rotate(-90)"/><path d="M39.3,25a6.3,6.3,0,0,1,5.3-6.22A20.63,20.63,0,0,0,31.18,5.33a6.29,6.29,0,0,1-12.44,0A20.64,20.64,0,0,0,5.33,18.74a6.29,6.29,0,0,1,0,12.45A20.63,20.63,0,0,0,18.75,44.6a6.29,6.29,0,0,1,12.42,0A20.62,20.62,0,0,0,44.6,31.18,6.3,6.3,0,0,1,39.3,25Z"/><path d="M25,8.82a4.42,4.42,0,0,0,4.39-4c0-.14,0-.29,0-.43a4.41,4.41,0,1,0-8.81,0,3.1,3.1,0,0,0,0,.43A4.41,4.41,0,0,0,25,8.82Z"/><path d="M25,41.18a4.41,4.41,0,0,0-4.37,3.91,4.07,4.07,0,0,0,0,.5,4.41,4.41,0,1,0,8.81,0,4.19,4.19,0,0,0,0-.5A4.42,4.42,0,0,0,25,41.18Z"/><path d="M8.82,25a4.42,4.42,0,0,0-4-4.39l-.43,0a4.41,4.41,0,1,0,0,8.81l.43,0A4.41,4.41,0,0,0,8.82,25Z"/><path d="M45.59,20.56a4.07,4.07,0,0,0-.5,0,4.4,4.4,0,0,0,0,8.75,4.07,4.07,0,0,0,.5,0,4.41,4.41,0,1,0,0-8.81Z"/></g></g></svg>