<svg xmlns="http://www.w3.org/2000/svg" viewBox="0 0 50 50"><defs><style>.cls-1{fill:none;}</style></defs><title>group-outline</title><g id="Layer_2" data-name="Layer 2"><g id="Layer_1-2" data-name="Layer 1"><rect class="cls-1" width="50" height="50" transform="translate(0 50) rotate(-90)"/><path class="cls-1" d="M25,41.93a3.56,3.56,0,0,0-3.53,3.15,3,3,0,0,0,0,.41,3.56,3.56,0,1,0,7.11,0c0-.12,0-.26,0-.41A3.57,3.57,0,0,0,25,41.93Z"/><path class="cls-1" d="M38.4,25a7.13,7.13,0,0,1,5-6.78A19.57,19.57,0,0,0,31.76,6.51a7.08,7.08,0,0,1-13.59,0A19.59,19.59,0,0,0,6.51,18.17a7.08,7.08,0,0,1,0,13.59A19.63,19.63,0,0,0,18.18,43.43a7.08,7.08,0,0,1,13.56,0A19.6,19.6,0,0,0,43.42,31.74,7.13,7.13,0,0,1,38.4,25Z"/><path class="cls-1" d="M25,8.07A3.54,3.54,0,0,0,28.5,4.86c0-.12,0-.24,0-.35a3.56,3.56,0,1,0-7.11,0c0,.11,0,.23,0,.35A3.55,3.55,0,0,0,25,8.07Z"/><path class="cls-1" d="M4.86,21.43a2.11,2.11,0,0,0-.35,0,3.56,3.56,0,1,0,0,7.11,2.11,2.11,0,0,0,.35,0,3.55,3.55,0,0,0,2.68-1.65A3.67,3.67,0,0,0,8.07,25,3.54,3.54,0,0,0,4.86,21.43Z"/><path class="cls-1" d="M45.49,21.41l-.41,0a3.56,3.56,0,0,0,0,7.07l.41,0a3.56,3.56,0,1,0,0-7.11Z"/><path d="M39.36,25a6.18,6.18,0,0,1,5.16-6.06l.15,0-.05-.14A20.63,20.63,0,0,0,31.19,5.31l-.14,0,0,.14a6.13,6.13,0,0,1-12.13,0l0-.14-.14,0A20.62,20.62,0,0,0,5.31,18.74l0,.14.15,0A6.13,6.13,0,0,1,5.41,31l-.15,0,0,.14A20.61,20.61,0,0,0,18.75,44.62l.13.05,0-.14a6.13,6.13,0,0,1,12.11,0l0,.14.14-.05A20.6,20.6,0,0,0,44.62,31.18l.05-.14-.15,0A6.18,6.18,0,0,1,39.36,25ZM31.74,43.43a7.08,7.08,0,0,0-13.56,0A19.63,19.63,0,0,1,6.51,31.76a7.08,7.08,0,0,0,0-13.59A19.59,19.59,0,0,1,18.17,6.51a7.08,7.08,0,0,0,13.59,0A19.57,19.57,0,0,1,43.42,18.19a7.08,7.08,0,0,0,0,13.55A19.6,19.6,0,0,1,31.74,43.43Z"/><path d="M25,9A4.5,4.5,0,0,0,29.45,5a3.39,3.39,0,0,0,0-.44,4.51,4.51,0,1,0-9,0,3.64,3.64,0,0,0,0,.45A4.48,4.48,0,0,0,25,9ZM21.41,4.51a3.56,3.56,0,1,1,7.11,0c0,.11,0,.23,0,.35a3.56,3.56,0,0,1-7.08,0C21.41,4.74,21.41,4.62,21.41,4.51Z"/><path d="M25,41a4.51,4.51,0,0,0-4.48,4,4.63,4.63,0,0,0,0,.51,4.51,4.51,0,1,0,9,0,4.77,4.77,0,0,0,0-.51A4.5,4.5,0,0,0,25,41Zm3.56,4.51a3.56,3.56,0,1,1-7.11,0,3,3,0,0,1,0-.41,3.56,3.56,0,0,1,7.07,0C28.51,45.23,28.52,45.37,28.52,45.49Z"/><path d="M9,25A4.49,4.49,0,0,0,5,20.48a3.31,3.31,0,0,0-.44,0,4.51,4.51,0,0,0,0,9,3.15,3.15,0,0,0,.44,0A4.48,4.48,0,0,0,9,25ZM4.86,28.5a2.11,2.11,0,0,1-.35,0,3.56,3.56,0,1,1,0-7.11,2.11,2.11,0,0,1,.35,0A3.54,3.54,0,0,1,8.07,25a3.67,3.67,0,0,1-.53,1.88A3.55,3.55,0,0,1,4.86,28.5Z"/><path d="M45.49,20.46l-.52,0a4.5,4.5,0,0,0,0,9,3.37,3.37,0,0,0,.52,0,4.51,4.51,0,0,0,0-9ZM49.05,25a3.56,3.56,0,0,1-3.56,3.55l-.41,0a3.56,3.56,0,0,1,0-7.07l.41,0A3.56,3.56,0,0,1,49.05,25Z"/></g></g></svg>