<svg xmlns="http://www.w3.org/2000/svg" viewBox="0 0 50 45.13"><title>heart-outline</title><g id="Layer_2" data-name="Layer 2"><g id="Layer_1-2" data-name="Layer 1"><path d="M16,.92a11.54,11.54,0,0,1,7.23,2.55l2.32,1.86,1.88-1.56a11.56,11.56,0,0,1,14.15-.45l.94.69a15.85,15.85,0,0,1,1.91,24L30.72,41.78a8.32,8.32,0,0,1-11.75,0L5.57,28.38A15.87,15.87,0,0,1,7.78,4.11L9.44,3A11.51,11.51,0,0,1,16,.92m0-.43A11.9,11.9,0,0,0,9.19,2.61L7.53,3.75A16.31,16.31,0,0,0,5.26,28.69l13.4,13.39a8.74,8.74,0,0,0,12.36,0L44.74,28.37a16.29,16.29,0,0,0-2-24.71l-1-.69a12,12,0,0,0-14.68.47L25.54,4.77l-2-1.64A12.06,12.06,0,0,0,16,.49Z"/><path d="M24.84,45.13a9.19,9.19,0,0,1-6.53-2.7L4.92,29A16.77,16.77,0,0,1,7.26,3.35L8.91,2.21A12.37,12.37,0,0,1,16,0a12.52,12.52,0,0,1,7.81,2.75l1.73,1.39,1.3-1.08a12.5,12.5,0,0,1,15.28-.49l1,.69a16.78,16.78,0,0,1,2,25.46L31.37,42.43A9.17,9.17,0,0,1,24.84,45.13ZM16,1.42a11,11,0,0,0-6.29,2L8.06,4.51A15.37,15.37,0,0,0,5.92,28l13.39,13.4a7.82,7.82,0,0,0,11.06,0L44.08,27.72A15.36,15.36,0,0,0,42.24,4.41l-1-.69a11.06,11.06,0,0,0-13.55.43L25.55,6,22.93,3.85A11.12,11.12,0,0,0,16,1.42Z"/></g></g></svg>