<svg xmlns="http://www.w3.org/2000/svg" viewBox="0 0 50 50"><defs><style>.cls-1{fill:none;}</style></defs><title>info</title><g id="Layer_2" data-name="Layer 2"><g id="Layer_1-2" data-name="Layer 1"><rect class="cls-1" width="50" height="50"/><path d="M25,0A25,25,0,1,0,50,25,25,25,0,0,0,25,0Zm3.11,7.58-1,24h-4l-.94-24ZM27.5,41.4a3.41,3.41,0,0,1-2.48,1,3.46,3.46,0,0,1-2.52-1,3.26,3.26,0,0,1-1-2.45,3.43,3.43,0,0,1,1.76-3,3.51,3.51,0,0,1,1.8-.47,3.38,3.38,0,0,1,2.48,1,3.32,3.32,0,0,1,1,2.47A3.26,3.26,0,0,1,27.5,41.4Z"/></g></g></svg>