<svg xmlns="http://www.w3.org/2000/svg" viewBox="0 0 51 51"><defs><style>.cls-1{fill:none;}</style></defs><title>info-outline</title><g id="Layer_2" data-name="Layer 2"><g id="Layer_1-2" data-name="Layer 1"><rect class="cls-1" x="0.5" y="0.5" width="50" height="50"/><polygon class="cls-1" points="26.86 31.19 27.75 9.08 23.52 9.08 24.39 31.19 26.86 31.19"/><path class="cls-1" d="M25.52,36.62a2.77,2.77,0,0,0-1.39.36,2.54,2.54,0,0,0-1,1,2.6,2.6,0,0,0-.36,1.33,2.43,2.43,0,0,0,.79,1.86,2.59,2.59,0,0,0,1.94.78,2.54,2.54,0,0,0,1.9-.78,2.43,2.43,0,0,0,.79-1.86,2.48,2.48,0,0,0-.79-1.87A2.56,2.56,0,0,0,25.52,36.62Z"/><path class="cls-1" d="M25.5,1.59A23.91,23.91,0,1,0,49.41,25.5,23.93,23.93,0,0,0,25.5,1.59Zm3.9,5.9-1,25.29H22.86l-1-25.29Zm-.87,34.79a4.17,4.17,0,0,1-3,1.23,4.21,4.21,0,0,1-3.05-1.23,4,4,0,0,1-1.26-3,4.16,4.16,0,0,1,.57-2.12,4.1,4.1,0,0,1,1.56-1.56A4.35,4.35,0,0,1,25.52,35a4.13,4.13,0,0,1,3,1.25,4.18,4.18,0,0,1,0,6Z"/><path d="M25.5,0A25.5,25.5,0,1,0,51,25.5,25.53,25.53,0,0,0,25.5,0ZM49.41,25.5A23.91,23.91,0,1,1,25.5,1.59,23.93,23.93,0,0,1,49.41,25.5Z"/><path d="M25.52,35a4.35,4.35,0,0,0-2.18.57,4.1,4.1,0,0,0-1.56,1.56,4.16,4.16,0,0,0-.57,2.12,4,4,0,0,0,1.26,3,4.21,4.21,0,0,0,3.05,1.23,4.17,4.17,0,0,0,3-1.23,4.18,4.18,0,0,0,0-6A4.13,4.13,0,0,0,25.52,35Zm2.69,4.25a2.43,2.43,0,0,1-.79,1.86,2.54,2.54,0,0,1-1.9.78,2.59,2.59,0,0,1-1.94-.78,2.43,2.43,0,0,1-.79-1.86A2.6,2.6,0,0,1,23.15,38a2.54,2.54,0,0,1,1-1,2.77,2.77,0,0,1,1.39-.36,2.56,2.56,0,0,1,1.9.79A2.48,2.48,0,0,1,28.21,39.28Z"/><path d="M28.39,32.78l1-25.29H21.87l1,25.29Zm-.64-23.7-.89,22.11H24.39L23.52,9.08Z"/></g></g></svg>