<svg xmlns="http://www.w3.org/2000/svg" viewBox="0 0 50 50"><defs><style>.cls-1{fill:none;}</style></defs><title>Kes</title><g id="Layer_2" data-name="Layer 2"><g id="Layer_1-2" data-name="Layer 1"><rect class="cls-1" width="50" height="50"/><path d="M6.4,25.54,2.75,29.79v5.79H1.06V14.31H2.75v13h0l11.05-13H16L7.57,24.16,16.2,35.58H14.05l-7.62-10Z"/><path d="M18.34,36.65H13.52L6.37,27.21l-2.56,3v6.46H0V13.24H3.81V24.46l9.51-11.22h5l-9.4,11ZM2.13,28.38v.5l.42-.5Z"/><path d="M23.24,19.62h9.53v1.2H24.5V27h6.87v1.2H24.5v6.15h8.74v1.2h-10Z"/><polygon points="34.3 36.65 22.18 36.65 22.18 18.55 33.83 18.55 33.83 21.89 25.57 21.89 25.57 25.96 32.44 25.96 32.44 29.29 25.57 29.29 25.57 33.31 34.3 33.31 34.3 36.65"/><path d="M40.79,35.09a7.12,7.12,0,0,1-2.56-1.83l.82-1a5.9,5.9,0,0,0,2.14,1.62,6.28,6.28,0,0,0,2.6.56,4.48,4.48,0,0,0,2.73-.79,2.5,2.5,0,0,0,1.07-2.1,2.71,2.71,0,0,0-1.17-2.32,10.93,10.93,0,0,0-2.3-1.11l-.55-.21A23.87,23.87,0,0,1,41,26.78a3.72,3.72,0,0,1-2.06-2.62,3.13,3.13,0,0,1-.06-.63,3.5,3.5,0,0,1,.37-1.59,3.94,3.94,0,0,1,1-1.29,4.89,4.89,0,0,1,1.51-.84,5.65,5.65,0,0,1,1.85-.3,7.38,7.38,0,0,1,2.5.45,8.66,8.66,0,0,1,2.36,1.33l-.81,1a7.32,7.32,0,0,0-2-1.17,5.73,5.73,0,0,0-2-.4,4.62,4.62,0,0,0-1.23.17,3.72,3.72,0,0,0-1.06.51,2.52,2.52,0,0,0-.77.85,2.45,2.45,0,0,0-.29,1.18,2.37,2.37,0,0,0,1.16,2.06,12.37,12.37,0,0,0,2.2,1c.18.07.33.12.43.17,1.3.52,2.14.87,2.5,1.06a4.38,4.38,0,0,1,2.1,1.95,4.08,4.08,0,0,1,.33,1.69,3.88,3.88,0,0,1-.69,2.27,4.46,4.46,0,0,1-1.87,1.49,6.37,6.37,0,0,1-2.59.51A7.8,7.8,0,0,1,40.79,35.09Z"/><path d="M43.79,36.76a8.77,8.77,0,0,1-3.41-.69h0A8.22,8.22,0,0,1,37.44,34l-.62-.68,2.23-2.68.82,1a4.83,4.83,0,0,0,1.76,1.33,5.32,5.32,0,0,0,2.16.47,3.35,3.35,0,0,0,2.09-.59,1.4,1.4,0,0,0,.64-1.24,1.65,1.65,0,0,0-.72-1.46,10.46,10.46,0,0,0-2.07-1l-.5-.19a24.74,24.74,0,0,1-2.78-1.22,4.78,4.78,0,0,1-2.59-3.38,3.91,3.91,0,0,1-.07-.8,4.74,4.74,0,0,1,.47-2.06,5.06,5.06,0,0,1,1.27-1.63,6.09,6.09,0,0,1,1.84-1,7.64,7.64,0,0,1,5.07.15,9.48,9.48,0,0,1,2.66,1.49l.84.66L47.8,23.82,47,23.15a6.23,6.23,0,0,0-1.72-1,4,4,0,0,0-2.59-.21,2.88,2.88,0,0,0-.77.36,1.4,1.4,0,0,0-.43.5,1.29,1.29,0,0,0-.16.66A1.31,1.31,0,0,0,42,24.64a11.06,11.06,0,0,0,2,.92l.46.18c1.34.54,2.17.89,2.57,1.1a5.34,5.34,0,0,1,2.57,2.45,5.29,5.29,0,0,1-.45,5,5.51,5.51,0,0,1-2.31,1.86A7.44,7.44,0,0,1,43.79,36.76Z"/></g></g></svg>