<svg xmlns="http://www.w3.org/2000/svg" viewBox="0 0 50 50"><defs><style>.cls-1{fill:none;}.cls-2{fill:#0a0a0a;}</style></defs><title>kora-outline</title><g id="Layer_2" data-name="Layer 2"><g id="Layer_1-2" data-name="Layer 1"><rect class="cls-1" width="50" height="50"/><path class="cls-2" d="M8.89,37.72a.86.86,0,0,0-.61,1.47l2.55,2.55a.86.86,0,0,0,1.23,0h0a.88.88,0,0,0,0-1.22L9.5,38a.85.85,0,0,0-.61-.25Z"/><path class="cls-2" d="M14.9,32a3.16,3.16,0,1,1-3.15,3.16A3.16,3.16,0,0,1,14.9,32m0-1.24a4.4,4.4,0,1,0,4.41,4.4,4.4,4.4,0,0,0-4.41-4.4Z"/><path class="cls-2" d="M46,1.73,48.3,4l-.53.52-1,1L45.49,6.81l-1,1L44.26,8h0L43.07,9.23,43,9.11l-.88-.88-.88.88L25.75,24.56l-.78.78-1,1L19.81,30.5a.21.21,0,0,1-.15.06.2.2,0,0,1-.14-.06.19.19,0,0,1,0-.28L23.7,26l1-1,.8-.8L40.91,8.83,41.79,8l-.88-.88L40.79,7l1.47-1.46.67-.68L44.54,3.2l1-1L46,1.73M15.43,21.37h0m0,0a13,13,0,0,1,8.36,3l0,0-.24-.19a13,13,0,0,0-8.15-2.82M6.07,25.24l0,.05s0,0,0,.06a13.3,13.3,0,0,0,9.35,21.59c.33,0,.67,0,1,0a13.38,13.38,0,0,0,8.3-2.88l0,0h0l0,0a13.44,13.44,0,0,1-4.07,3.25,13.32,13.32,0,0,1-5.24,1.41l-.72,0a13.38,13.38,0,0,1-4.72-.87l-.37-.16c-.32-.14-.63-.27-.92-.41l-.39-.22c-.29-.16-.57-.31-.83-.48l-.25-.18c-.32-.22-.61-.43-.9-.66l-1.09-1a13.58,13.58,0,0,1-3-4.68,13.19,13.19,0,0,1,.55-10.71A13.27,13.27,0,0,1,6,25.32L6,25.27l0,0m19.61,1a13.41,13.41,0,0,1,1.77,2.85,13.15,13.15,0,0,0-1.61-2.64l-.16-.21m.5,16.09a13.8,13.8,0,0,1-1,1.26,13.8,13.8,0,0,0,1-1.26M42.77,0a.39.39,0,0,0-.27.11l-.37.37a.38.38,0,0,0,0,.56l1.52,1.28L42.05,3.94,40.77,2.42a.39.39,0,0,0-.56,0l-.37.37a.38.38,0,0,0,0,.56l1.51,1.28L39.62,6.37a.83.83,0,0,0,0,1.17L40,8,24.59,23.39a14.48,14.48,0,0,0-19.35.92l-.06.05a14.48,14.48,0,0,0-3.6,4.51A14.13,14.13,0,0,0,0,34.6a14.35,14.35,0,0,0,.94,6,14.7,14.7,0,0,0,3.33,5.13l1.15,1c.4.32.82.61,1.24.91s.89.51,1.34.77.93.42,1.4.62a14.46,14.46,0,0,0,5.19,1l.79,0a14.3,14.3,0,0,0,5.73-1.55,14.47,14.47,0,0,0,4.46-3.54l.05,0a14.5,14.5,0,0,0,1-19.4L42.08,10l.41.41a.82.82,0,0,0,.58.24.84.84,0,0,0,.59-.24l1.75-1.75,1.25,1.47a.38.38,0,0,0,.29.14.36.36,0,0,0,.27-.12l.37-.36a.38.38,0,0,0,0-.56L46.09,8,47.7,6.36,49,7.84a.36.36,0,0,0,.29.13.43.43,0,0,0,.27-.11l.37-.37a.39.39,0,0,0,0-.56L48.38,5.68l1.09-1.09a.83.83,0,0,0,0-1.17L46.6.56A.82.82,0,0,0,46,.32a.84.84,0,0,0-.59.24L44.34,1.65,43.06.13A.43.43,0,0,0,42.77,0ZM16.34,45.74c-.31,0-.61,0-.92,0A12.07,12.07,0,0,1,7,26.13l0-.05a12,12,0,0,1,15.83-.92l-4.18,4.18a1.45,1.45,0,0,0,1,2.47,1.49,1.49,0,0,0,1-.43l4.17-4.17a12,12,0,0,1-1,15.87l0,.05a12.09,12.09,0,0,1-7.52,2.61Z"/></g></g></svg>