<svg xmlns="http://www.w3.org/2000/svg" viewBox="0 0 50 50"><defs><style>.cls-1{fill:none;}.cls-2{fill:#0a0a0a;}</style></defs><title>kora</title><g id="Layer_2" data-name="Layer 2"><g id="Layer_1-2" data-name="Layer 1"><rect class="cls-1" width="50" height="50"/><path class="cls-2" d="M9.5,38a.86.86,0,0,0-1.22,1.22l2.55,2.55a.87.87,0,0,0,1.23,0h0a.88.88,0,0,0,0-1.22Z"/><circle class="cls-2" cx="14.9" cy="35.12" r="4.4"/><path class="cls-2" d="M49.85,6.93,48.38,5.68l1.09-1.09a.83.83,0,0,0,0-1.17L46.6.56a.82.82,0,0,0-1.17,0L44.34,1.65,43.06.13a.38.38,0,0,0-.56,0l-.37.37a.38.38,0,0,0,0,.56l1.52,1.28L42.05,3.94,40.77,2.42a.38.38,0,0,0-.56,0l-.37.37a.39.39,0,0,0,0,.56l1.51,1.28L39.62,6.37a.83.83,0,0,0,0,1.17L40,8,24.59,23.39a14.48,14.48,0,0,0-19.35.92l-.06.05a14.48,14.48,0,0,0-3.6,4.51A14.13,14.13,0,0,0,0,34.6a14.35,14.35,0,0,0,.94,6,14.7,14.7,0,0,0,3.33,5.13l1.15,1c.4.32.82.61,1.24.91s.89.51,1.34.77.93.42,1.4.62a14.63,14.63,0,0,0,6,.94,14.3,14.3,0,0,0,5.73-1.55,14.47,14.47,0,0,0,4.46-3.54l.05,0a14.5,14.5,0,0,0,1-19.4L42.08,10l.41.41a.83.83,0,0,0,1.17,0l1.75-1.75,1.25,1.47a.38.38,0,0,0,.56,0l.37-.36a.38.38,0,0,0,0-.56L46.09,8,47.7,6.36,49,7.84a.38.38,0,0,0,.56,0l.37-.37A.39.39,0,0,0,49.85,6.93ZM15.42,45.7A12.07,12.07,0,0,1,7,26.13l0-.05a12,12,0,0,1,15.83-.92l-4.18,4.18a1.45,1.45,0,1,0,2.05,2l4.17-4.17a12,12,0,0,1-1,15.87l0,.05A12.11,12.11,0,0,1,15.42,45.7Z"/></g></g></svg>