<svg xmlns="http://www.w3.org/2000/svg" viewBox="0 0 50 50"><defs><style>.cls-1{fill:none;}.cls-2{fill:#0a0a0a;}</style></defs><title>lady-outline</title><g id="Layer_2" data-name="Layer 2"><g id="Layer_1-2" data-name="Layer 1"><rect class="cls-1" width="50" height="50"/><path class="cls-2" d="M35.91,28.21a1.1,1.1,0,0,0-.5-.11,10.87,10.87,0,0,0,.78-4.22v-.37l-.36-.09a31.89,31.89,0,0,0-3.69-.57l-.42,0a24.38,24.38,0,0,0-12,1.81.81.81,0,0,0-.18.08,16,16,0,0,0-4.79,3.46l0,0a1.14,1.14,0,0,0-1,0c-.41.22-.63.7-.68,1.46a4.55,4.55,0,0,0,2.15,3.92c.5,2.7,1.38,6.16,2.79,7.43l1.22,1.14c.48.46,1,1,1.58,1.45l.27.22c.28,1.46.5,4.07-1,5.48l.63.67c1.51-1.43,1.61-3.69,1.42-5.37a5,5,0,0,0,2.68,1h.32a4.73,4.73,0,0,0,2.42-.78c-.16,1.65,0,3.81,1.44,5.19l.63-.67c-1.42-1.34-1.3-3.75-1.05-5.24l.6-.47c.55-.48,1.12-1,1.63-1.5s.77-.73,1.16-1.08c1.44-1.3,2.33-4.89,2.83-7.68a4.38,4.38,0,0,0,1.84-3.67C36.55,28.91,36.33,28.43,35.91,28.21Zm-21.12,1.1.69.53.07-1.16A15.19,15.19,0,0,1,20,25.54l.12-.05a23.63,23.63,0,0,1,11.6-1.75l.44,0a29.16,29.16,0,0,1,3.15.46A8.53,8.53,0,0,1,34.4,28l-.08.14,0,.16a3.73,3.73,0,0,1,0,.46l0,.78.67-.4c.22-.13.36-.15.4-.13s.17.2.2.72a3.5,3.5,0,0,1-1.63,3l-.13.11,0,.17c-.67,3.83-1.59,6.43-2.57,7.32-.4.36-.79.73-1.19,1.11s-1.06,1-1.57,1.45l-1.08.85a4.23,4.23,0,0,1-2.54.91,4.07,4.07,0,0,1-2.48-.9l-1.08-.85c-.51-.43-1-.91-1.54-1.41l0,0-1.2-1.13c-1-.87-1.87-3.39-2.54-7.08l0-.18L15.89,33c-1.37-1-2-2.07-1.92-3.23,0-.49.15-.68.21-.71h0a.78.78,0,0,1,.31.1l.05,0Z"/><path class="cls-2" d="M33.94,15.72a16.18,16.18,0,0,0-4.27-.55c-8.33,0-15.73,5.69-16.49,7-.61,1.07.84,3.85,1.49,5l.06.11.08-.09c.29-.3.56-.56.84-.81,4.28-3.8,9.87-4.6,13.8-4.6.46,0,.93,0,1.39,0a31.24,31.24,0,0,1,5,.63l.12,0V22.4l.06-.1a4.78,4.78,0,0,0,.7-4.07A4.93,4.93,0,0,0,33.94,15.72Zm-3.06,5.2-1.43,0c-4.09,0-9.92.84-14.41,4.83l-.08.07c-.94-1.86-1.1-2.9-1-3.13.64-1.11,7.75-6.57,15.69-6.57a15.39,15.39,0,0,1,4,.51,4,4,0,0,1,2.19,2,3.57,3.57,0,0,1-.41,2.88A34.17,34.17,0,0,0,30.88,20.92Z"/><path class="cls-2" d="M27.42,14.56l.89-.1-.89-.09c-1-.09-2.06-.14-3.15-.14-3.78,0-8.61.6-10.81,2.27a3.69,3.69,0,0,0-.79,4.94l.07.12.09-.1C14.15,19.91,20.07,15.39,27.42,14.56Zm-6.6.76a28,28,0,0,0-7.76,4.6,2.4,2.4,0,0,1,1-2.68C15.22,16.32,17.73,15.62,20.82,15.32Z"/><path class="cls-2" d="M26.37,9.07V8.88a34.8,34.8,0,0,0-8.36.8c-3.51.73-5.79,1.45-7.15,2.28l0,0-.12.1-.17.11a2.85,2.85,0,0,0-1.39,1.92c-.16,1.11.49,2.58,2,4.62l.13.18,0-.22a3.94,3.94,0,0,1,1.36-2.48A21,21,0,0,1,26.37,9.07ZM10.07,14.2a2,2,0,0,1,1-1.28l0,0,.12-.08,0,0c1.26-.78,3.46-1.48,6.92-2.2l.2,0a21.53,21.53,0,0,0-6.34,5,5,5,0,0,0-1,1.29A4.4,4.4,0,0,1,10.07,14.2Z"/><path class="cls-2" d="M34.94,10.7a22.56,22.56,0,0,0-6.53-1,20.06,20.06,0,0,0-13,4.86l-.37.32.46-.16a29.16,29.16,0,0,1,8.82-1.21,23.53,23.53,0,0,1,7.86,1.11,14.56,14.56,0,0,1,2,.41,5.61,5.61,0,0,1,3.25,3,4.06,4.06,0,0,1,.24,1l0,.26.14-.21a5.3,5.3,0,0,0,1-4.5A6.67,6.67,0,0,0,34.94,10.7Zm2.94,6.14a6.85,6.85,0,0,0-3.48-2.72,17.59,17.59,0,0,0-2-.41,24.75,24.75,0,0,0-8.09-1.14,36.25,36.25,0,0,0-4.85.32,18.59,18.59,0,0,1,9-2.27,21.39,21.39,0,0,1,6.26,1A5.65,5.65,0,0,1,38,14.79,3.52,3.52,0,0,1,37.88,16.84Z"/><path class="cls-2" d="M39.85,8.73c-2.41-3-6.7-3.34-10.18-3.34-1.07,0-2.12.05-3.05.08h-.15a26.25,26.25,0,0,0-8.29,1.71,23.69,23.69,0,0,0-3,1.44,8.49,8.49,0,0,0-.83.58A5.36,5.36,0,0,1,13,10l.05.17A43.84,43.84,0,0,1,17.85,9a37.18,37.18,0,0,1,7.55-.84c4.57,0,6.91,1.06,7.34,1.27h0c.84.17,1.62.37,2.39.6a7.66,7.66,0,0,1,4.14,3.66l0,.11.1-.07a3.06,3.06,0,0,0,1.44-2.56A4.19,4.19,0,0,0,39.85,8.73Zm.1,2.44a1.73,1.73,0,0,1-.38,1.12,8.79,8.79,0,0,0-4.15-3.18c-.77-.23-1.55-.43-2.36-.59A18.41,18.41,0,0,0,25.4,7.19a36.17,36.17,0,0,0-5.95.53A25.53,25.53,0,0,1,26.51,6.4h.13c.92,0,2-.08,3-.08,3.27,0,7.3.34,9.46,3A3.29,3.29,0,0,1,40,11.17Z"/><path class="cls-2" d="M10.42,11.31l.09-.09c1-1.08,6.68-6.51,17.61-6.51h0A35.62,35.62,0,0,1,32.44,5l.69.08-.65-.26-.58-.23-.15-.06-.05,0-.83-.29-.12,0-.12,0-.08,0L30,3.94l-.16,0-.15,0-.51-.14L28,3.44l-.4-.08-.19,0-.15,0-.16,0-.29,0-.16,0-.17,0L26,3.13l-.31,0h0l-.44,0L25,3l-.39,0h-.35c-.28,0-.56,0-.83,0h-.1L22.8,3l-1,.07-.4,0-.14,0-.15,0-.66.09-.39.07-.21,0h-.06l-.38.07-.25.06-.41.09h0l-.19,0-.07,0a3.17,3.17,0,0,0-.44.12H18L17.36,4,17.17,4,17,4.1l-.22.08-.15.05-.08,0-.33.12-.25.1-.4.16-.14.06,0,0-.25.11-.2.09,0,0-.29.13-.22.11-.19.09-.31.16-.27.15-.07,0-.13.07-.34.2L12.88,6l-.33.2-.05,0c-.82.51-1.44,1-1.94,1.32a2,2,0,0,0-.84,1.34,3.93,3.93,0,0,0,.64,2.33ZM10.64,9a1,1,0,0,1,.47-.72C11.56,8,12.18,7.51,13,7l.1,0,.3-.19.2-.11.34-.19.1-.06.08,0,.25-.13.32-.16L14.81,6,15,5.9l.26-.13.08,0,.11,0,0,0,.23-.11L16,5.49l.39-.16.18-.07.06,0,.29-.11.12,0,.06,0h.06L17.27,5l.18-.06.19-.07.57-.17.1,0,.41-.11h0L19,4.48l.39-.09.25,0L20,4.26H20l.22,0,.35,0,.9-.13.4,0,.25,0,1.15-.05h1.52a25.16,25.16,0,0,0-14.12,5.8A1.8,1.8,0,0,1,10.64,9Z"/><path class="cls-2" d="M14.77,4.19h0L15.25,4l.11-.05.07,0,.36-.15.57-.21.1,0,.11,0L17,3.33l.17-.06.62-.18,0,0,.55-.15.1,0,.11,0,.42-.1.24,0,.4-.08.12,0,.14,0,.43-.07.11,0,.12,0,.55-.07h.07l.14,0,.6-.06h.36l.34,0,.3,0h1.44l.53,0h.24l.73.06.18,0,.59.07.47.07.32.06.31,0,.81.17.54.12.16,0,.19,0,.74.2,0,0,.78.24h0l.18.06.1,0,.44.16.18.06.28.11.55.21.32.14.59.25.2.09.1,0L34.7,5l.08,0,0,0,.85.44h.08l0,0h0l.65.13.47.12-.18-.22a17.2,17.2,0,0,0-5.69-4.42A17.31,17.31,0,0,0,25,0h0A15.85,15.85,0,0,0,14.58,4.08L14,4.56l.66-.34Zm6.38-2.72A15.08,15.08,0,0,1,30.74,2a8.81,8.81,0,0,1,1.87,1l-.1,0-.34-.13-.16,0a4.29,4.29,0,0,0-.42-.15l-.08,0L31.3,2.6l-.82-.26-.05,0-.86-.23-.14,0L29.3,2l-.57-.14-1.14-.22-.35-.06-.49-.07-.59-.07-.2,0-.73-.06H25l-.79,0h-.13c-.27,0-.55,0-.79,0h-.73l-.36,0h-.16l-.24,0-.64.06Z"/></g></g></svg>