<svg xmlns="http://www.w3.org/2000/svg" viewBox="0 0 50 50"><defs><style>.cls-1{fill:#0a0a0a;}.cls-2{fill:none;}</style></defs><title>lady</title><g id="Layer_2" data-name="Layer 2"><g id="Layer_1-2" data-name="Layer 1"><path class="cls-1" d="M14.86,28.5l.25.17c0-.12,0-.24,0-.36l0-.06Z"/><path class="cls-1" d="M15.13,28.31a.38.38,0,0,0,0-.1l0,0Z"/><path class="cls-1" d="M36.47,29.46c-.1-1.44-.84-1.26-1.32-1,0-.17,0-.34,0-.51a9.47,9.47,0,0,0,.95-4.44A29.53,29.53,0,0,0,32.42,23c-4.59-.44-12.18-.15-17.28,5.23a.38.38,0,0,1,0,.1c0,.12,0,.24,0,.36l-.25-.17h0l-.06-.05c-.49-.27-1.16-.38-1.26,1a4.39,4.39,0,0,0,2.14,3.68c.49,2.69,1.36,6.22,2.71,7.45,1,.86,1.89,1.8,2.82,2.6.3,1.26.84,4.49-.9,6.13l.64.68c1.68-1.59,1.64-4.22,1.38-5.93a4.43,4.43,0,0,0,5.63,0c-.26,1.71-.3,4.34,1.38,5.93l.64-.68c-1.74-1.64-1.19-4.87-.9-6.13.93-.8,1.86-1.74,2.82-2.6,1.39-1.27,2.28-5,2.75-7.69A4.14,4.14,0,0,0,36.47,29.46Z"/><path class="cls-1" d="M36.8,18.42A4.81,4.81,0,0,0,34,15.93c-9.72-2.64-20,4.81-20.94,6.53-.49.87.44,3.08,1.51,5,.28-.28.56-.56.86-.82,4.71-4.19,11-4.86,15.45-4.65a31.42,31.42,0,0,1,5.1.63h0l.07-.12A4.73,4.73,0,0,0,36.8,18.42Z"/><path class="cls-1" d="M13.36,16.7a3.63,3.63,0,0,0-.77,4.89c1.56-1.82,7.69-6.22,14.85-7C22.42,14.09,15.89,14.78,13.36,16.7Z"/><path class="cls-1" d="M12.48,16.23A21.55,21.55,0,0,1,26.38,9a35.47,35.47,0,0,0-8.45.8c-3.6.75-5.91,1.49-7.29,2.34h0l-.05,0-.17.11,0,0A2.78,2.78,0,0,0,9,14.17c-.16,1.1.5,2.59,2.06,4.62A4,4,0,0,1,12.48,16.23Z"/><path class="cls-1" d="M35,10.84a20.39,20.39,0,0,0-19.73,3.89c4.81-1.63,13-1.63,16.94-.12a18.34,18.34,0,0,1,2.06.42,5.77,5.77,0,0,1,3.36,3.06,4.62,4.62,0,0,1,.24,1,5.28,5.28,0,0,0,1-4.47A6.61,6.61,0,0,0,35,10.84Z"/><path class="cls-1" d="M40,8.82C37,5.1,30.81,5.38,26.5,5.55a26.31,26.31,0,0,0-8.37,1.73,23.37,23.37,0,0,0-3.08,1.45,16,16,0,0,1-2.16,1.41,41.9,41.9,0,0,1,4.84-1.25c9.81-2,14.63.19,15.15.45.79.16,1.6.36,2.43.61a7.79,7.79,0,0,1,4.25,3.76A3,3,0,0,0,41,11.2,4.13,4.13,0,0,0,40,8.82Z"/><path class="cls-1" d="M32.55,4.86,32,4.63l-.21-.08-.85-.3-.23-.07L30.07,4l-.32-.09-.5-.14-.34-.09-.48-.11-.35-.07-.45-.09-.35-.06-.45-.07-.33,0L26,3.17l-.31,0-.49,0-.27,0-.59,0H23.29l-.51,0h-.27l-.44,0-.28,0-.41,0-.28,0-.4.05-.28,0L20,3.35l-.27,0-.39.08-.25,0-.41.1-.22.05L18,3.82l-.1,0L17.29,4l-.2.06-.38.14-.24.08-.33.13-.24.09-.31.13-.24.1-.3.13L14.82,5l-.29.13-.23.11L14,5.38l-.22.11-.28.15-.2.11L13,5.94l-.21.13a2.63,2.63,0,0,0-.33.2l0,0c-.82.51-1.45,1-2,1.34a1.86,1.86,0,0,0-.82,1.29,3.84,3.84,0,0,0,.64,2.3C11.48,9.9,18.58,3.15,32.55,4.86Z"/><path class="cls-1" d="M14.64,4.05l.44-.19.18-.08.37-.15.21-.08.38-.14.21-.07.42-.14A.64.64,0,0,1,17,3.14L17.64,3l.06,0,.56-.15.21,0,.43-.11.24-.05.42-.09.25,0,.44-.08.24,0,.56-.08.12,0,.7-.06.22,0,.49,0h1.78l.53,0h.22l.77.07.19,0,.59.07.29,0,.52.08.31.06.51.1.31.07a5.66,5.66,0,0,1,.56.13l.27.06.84.23h0l.81.26.28.1.59.2.32.13.57.22.33.14c.2.07.4.16.6.25l.29.14c.26.11.51.23.77.36l.14.06.86.45h.07l0,0c.25,0,.5.1.76.16l.11,0a17.52,17.52,0,0,0-5.74-4.45,15.84,15.84,0,0,0-16.61,3h0Z"/><path class="cls-1" d="M14.86,28.5l-.07,0,.06.05Z"/><rect class="cls-2" width="50" height="50"/></g></g></svg>