<svg xmlns="http://www.w3.org/2000/svg" viewBox="0 0 50 50.5"><defs><style>.cls-1{fill:none;}</style></defs><title>lamp-outline</title><g id="Layer_2" data-name="Layer 2"><g id="Layer_1-2" data-name="Layer 1"><rect class="cls-1" y="0.25" width="50" height="50"/><path d="M35.7,37.51a2.35,2.35,0,0,0,0-.59l-.07-.82c-.23-3.06-1.43-18.44-1.9-20.9a4.38,4.38,0,0,0-3-3.5c-.11-1.09-.23-2.34-.28-2.89a1.14,1.14,0,0,0-.92-1L29,7.74c1.84-.19,2.09-.44,2.11-.7l.23,0-.23,0c0-.27-.32-.47-1.58-.64a9.36,9.36,0,0,1-1.9-.43,4.45,4.45,0,0,0-.93-.21c.45-1.54,1-4.57-.87-5.52a1.74,1.74,0,0,0-1.51,0c-1.93,1-1.31,4-.85,5.57a4.76,4.76,0,0,0-.57.14,10.36,10.36,0,0,1-2,.45c-1.3.17-1.6.37-1.62.64L19.1,7l.22,0c0,.24.23.48,1.78.66v0l-.5.08a1.13,1.13,0,0,0-.91,1c-.05.54-.17,1.77-.28,2.86a4.34,4.34,0,0,0-3.17,3.53c-.51,2.69-2,21.53-2,21.72a2.35,2.35,0,0,0,0,.59,5.27,5.27,0,0,0,3.3,3.73,2,2,0,0,0-.53.94v2.28a.84.84,0,0,1-.32.65c-.86.69-1.29,1.33-1.27,1.92a.44.44,0,0,1-.07.24,1.1,1.1,0,0,0,.23,1.4c.65.62,4.37,1.83,8.88,1.83h.7c1.31,0,7.87-.2,9.24-1.87a1.11,1.11,0,0,0,.15-1.41.5.5,0,0,1,0-.18c0-.59-.41-1.24-1.27-1.92a.82.82,0,0,1-.31-.65V42.12a2,2,0,0,0-.54-.9A5.24,5.24,0,0,0,35.7,37.51ZM25.61,5.6a9.35,9.35,0,0,0-1.06,0c-.27-.86-1.07-3.83.25-4.48a.7.7,0,0,1,.55,0C26.67,1.78,25.87,4.76,25.61,5.6Zm-.37.87a7,7,0,0,1,2.09.26l.67.2a46.72,46.72,0,0,1-5.55,0l.73-.22A7,7,0,0,1,25.24,6.47ZM32.65,46c.59.47.86.87.86,1a1.24,1.24,0,0,0,.21.78s0,.05-.09.15c-.82,1-5.6,1.43-8.43,1.48-4.69.11-8.47-1.2-8.81-1.53-.05,0-.06-.07-.05-.08a1.56,1.56,0,0,0,.21-.81c0-.13.18-.5.87-1a1.91,1.91,0,0,0,.72-1.5V42.33c.06-.16.25-.45.89-.87a12.81,12.81,0,0,1,2.41-1.14h0l.07,0,.13,0v0c.3-.19.69-.69,1-2a27,27,0,0,0,4.76,0l.06.13a8.89,8.89,0,0,1,.36,1.08,1.16,1.16,0,0,0,.83.85A12.77,12.77,0,0,1,31,41.46c.64.42.83.71.89.87v2.13A1.93,1.93,0,0,0,32.65,46ZM18.53,37.59c.24.46.6,1.15,1.39,1.15H20a13.41,13.41,0,0,1,1.34-.05,1.77,1.77,0,0,1-.32.62,14.69,14.69,0,0,0-2.43,1.13,4.25,4.25,0,0,1-3.28-3.16,1.32,1.32,0,0,1,0-.28h0l2.93.17A2.7,2.7,0,0,1,18.53,37.59Zm2.8-21.75H28.8a11.16,11.16,0,0,0,0,2H21.31A11.19,11.19,0,0,0,21.33,15.84Zm3,17.54-2.82,1.73a6.42,6.42,0,0,1-.66-.24,3.87,3.87,0,0,1-2.66-3.65,11,11,0,0,1,.22-2.55c0-.08,0-.16.05-.23.86.86,2.25,2,4.2,3.62Zm.9.69c.7.55,1.33,1,1.83,1.4a14.08,14.08,0,0,1-4.05,0Zm.06-1.3a64.57,64.57,0,0,1-6.55-5.58c0-.14.07-.27.11-.41a58.6,58.6,0,0,1,2.3-6.47c.19-.46.38-.92.56-1.39h6.9l.23.61a51.16,51.16,0,0,1,2.9,8.85C30.65,29.24,28.32,30.82,25.25,32.77Zm2.81,3.61.18.12.11-.12a5.75,5.75,0,0,1,1.3.33,8.78,8.78,0,0,1-2,.43,25.83,25.83,0,0,1-5.42,0,8.7,8.7,0,0,1-2.13-.44,7.21,7.21,0,0,1,1.71-.39,13.79,13.79,0,0,0,3.26.36A14.19,14.19,0,0,0,28.06,36.38Zm-1.91-2.91,1.42-.91c2-1.29,3.4-2.26,4.33-3A7.9,7.9,0,0,1,32,31.22h0a4.3,4.3,0,0,1-.73,2.25,4.39,4.39,0,0,1-1.92,1.4,6.92,6.92,0,0,1-.91.31ZM33,35.86A1.17,1.17,0,0,0,32,37a.6.6,0,0,1-.17.36.49.49,0,0,1-.3.18l-1.2,0c.45-.24.67-.53.67-.88s-.11-.66-.91-1a5.27,5.27,0,0,0,2.05-1.62,5.38,5.38,0,0,0,.94-2.81,11.18,11.18,0,0,0-.19-2.52c.49-.49.53-.74.42-1a.67.67,0,0,0-.7-.42h0a58,58,0,0,0-2.77-8.19l-.08-.2h1.34L30,18a7.69,7.69,0,0,1-.07-2.19h1a.75.75,0,0,0,.64-.38.73.73,0,0,0,0-.74A3.94,3.94,0,0,1,31,13.53c0-.1-.05-.32-.09-.64a3.31,3.31,0,0,1,1.84,2.51c.44,2.3,1.58,16.78,1.85,20.27ZM19.17,13.53a4.5,4.5,0,0,1-.53,1.19.7.7,0,0,0,0,.74.74.74,0,0,0,.64.38h1A8.61,8.61,0,0,1,20.2,18l-1.11.92h1.42l-.39,1a63,63,0,0,0-2.24,6.18.69.69,0,0,0-.54.4c-.11.25-.11.49.19.94-.08.35-.15.7-.21,1a11.45,11.45,0,0,0-.24,2.82A5.38,5.38,0,0,0,18,34.1a5.32,5.32,0,0,0,1.87,1.54,1.75,1.75,0,0,0-1,.64.88.88,0,0,0-.32-.16l-.38-.38.19.35h0l-2.93-.18c.28-3.56,1.43-18.22,1.87-20.51a3.27,3.27,0,0,1,2-2.56C19.22,13.26,19.19,13.45,19.17,13.53Zm12.24,26.9a13.13,13.13,0,0,0-2.52-1.15.11.11,0,0,1-.06-.07c0-.15-.09-.31-.15-.51l2.84-.07a1.48,1.48,0,0,0,1.08-.52A1.68,1.68,0,0,0,33,37a.1.1,0,0,1,.09-.09l1.52-.19,0,.26a1.27,1.27,0,0,1,0,.28A4.25,4.25,0,0,1,31.41,40.43ZM25,8.5h.17a24.12,24.12,0,0,1,4.23.41c.14,1.55.41,4.24.52,4.83a4.2,4.2,0,0,0,.38,1H19.84a3.81,3.81,0,0,0,.38-1h0c.12-.61.41-3.58.56-4.86A27.39,27.39,0,0,1,25,8.5Z"/></g></g></svg>