<svg xmlns="http://www.w3.org/2000/svg" viewBox="0 0 50 50"><defs><style>.cls-1{fill:none;}</style></defs><title>like-outline</title><g id="Layer_2" data-name="Layer 2"><g id="Layer_1-2" data-name="Layer 1"><rect class="cls-1" width="50" height="50"/><path class="cls-1" d="M1,24.67V43.1A4,4,0,0,0,4.43,47l6.43.25H11a3.91,3.91,0,0,0,.49,0,4,4,0,0,0,3.91-3.41l2.3-18.56a4,4,0,0,0-3.87-4.52L5,20.72l0-1v1A4,4,0,0,0,1,24.67Z"/><path class="cls-1" d="M45.49,20.71H32l.8-1.47,8-14.82a1.33,1.33,0,0,0-.23-1.14,1.48,1.48,0,0,0-1.17-.6,1.39,1.39,0,0,0-.88.34L24.14,16a6.32,6.32,0,0,0-2,3.81L18.75,42.93a3.85,3.85,0,0,0,3.8,4.39H39c3.2-.4,6-5.43,7.79-13.81.3-1.43.67-2.81,1-4.14.87-3.29,1.69-6.4.69-7.71C48.05,21,47,20.71,45.49,20.71Z"/><path d="M13.79,19.82,5,19.72H5l0,1,8.78.1a4,4,0,0,1,3.87,4.52L15.35,43.9a4,4,0,0,1-3.91,3.41,3.91,3.91,0,0,1-.49,0h-.09L4.43,47A4,4,0,0,1,1,43.1V24.67a4,4,0,0,1,4-4v-1a5,5,0,0,0-4.95,5V43.1A5,5,0,0,0,4.35,48l6.47.25a4.3,4.3,0,0,0,.62,0A5,5,0,0,0,16.34,44l2.3-18.57A5,5,0,0,0,13.79,19.82Z"/><path d="M45.49,19.71H33.68l8-14.91a2.42,2.42,0,0,0-2.33-3.12,2.34,2.34,0,0,0-1.51.56l-14.41,13a7.36,7.36,0,0,0-2.36,4.41L17.76,42.79a4.84,4.84,0,0,0,4.79,5.53H39.1c5-.55,7.59-9.26,8.71-14.6C49.36,26.32,52.83,19.71,45.49,19.71Zm2.36,9.66c-.35,1.33-.72,2.71-1,4.14C45.08,41.89,42.24,46.92,39,47.32H22.55a3.85,3.85,0,0,1-3.8-4.39L22.1,19.78a6.32,6.32,0,0,1,2-3.81L38.51,3a1.39,1.39,0,0,1,.88-.34,1.48,1.48,0,0,1,1.17.6,1.33,1.33,0,0,1,.23,1.14l-8,14.82L32,20.71H45.49c1.54,0,2.56.32,3,.95C49.54,23,48.72,26.08,47.85,29.37Z"/></g></g></svg>