<svg xmlns="http://www.w3.org/2000/svg" viewBox="0 0 50 44.16"><defs><style>.cls-1{fill:none;}.cls-2{fill:#212121;}</style></defs><title>load-outline</title><g id="Layer_2" data-name="Layer 2"><g id="Layer_1-2" data-name="Layer 1"><path class="cls-1" d="M46.82,21H39.38a1.08,1.08,0,0,0-.92.53,1.06,1.06,0,0,0,0,1.06l3.72,6.44a1.06,1.06,0,0,0,1.84,0l3.71-6.44a1,1,0,0,0,0-1.06A1,1,0,0,0,46.82,21Z"/><path class="cls-2" d="M49.57,20.52a3.15,3.15,0,0,0-2.75-1.59H43.94A22.08,22.08,0,1,0,22.08,44.16V42A20,20,0,1,1,41.79,18.93H39.38a3.18,3.18,0,0,0-2.75,4.76l3.72,6.44a3.13,3.13,0,0,0,2.75,1.59h0a3.13,3.13,0,0,0,2.75-1.59l3.72-6.44A3.15,3.15,0,0,0,49.57,20.52Zm-1.84,2.11L44,29.07a1.06,1.06,0,0,1-1.84,0l-3.72-6.44a1.06,1.06,0,0,1,0-1.06,1.08,1.08,0,0,1,.92-.53h7.44a1,1,0,0,1,.91.53A1,1,0,0,1,47.73,22.63Z"/></g></g></svg>