<svg xmlns="http://www.w3.org/2000/svg" viewBox="0 0 50 40.34"><defs><style>.cls-1{fill:#0a0a0a;}</style></defs><title>loop</title><g id="Layer_2" data-name="Layer 2"><g id="Layer_1-2" data-name="Layer 1"><path class="cls-1" d="M48.07,13.28H48V3.22A3.22,3.22,0,0,0,44.75,0H0V6.43H41.54v6.85h-.12a1.93,1.93,0,0,0-1.67,2.89l4.13,7.15a1,1,0,0,0,1.73,0l4.13-7.15A1.93,1.93,0,0,0,48.07,13.28Z"/><path class="cls-1" d="M1.93,27.06H2V37.13a3.22,3.22,0,0,0,3.22,3.21H50V33.91H8.46V27.06h.12a1.93,1.93,0,0,0,1.67-2.89L6.12,17a1,1,0,0,0-1.73,0L.26,24.17A1.93,1.93,0,0,0,1.93,27.06Z"/></g></g></svg>