<svg xmlns="http://www.w3.org/2000/svg" viewBox="0 0 50 50"><defs><style>.cls-1{fill:none;}.cls-2{fill:#0a0a0a;}</style></defs><title>man-outline</title><g id="Layer_2" data-name="Layer 2"><g id="Layer_1-2" data-name="Layer 1"><rect class="cls-1" width="50" height="50"/><path class="cls-2" d="M40.53,19.61a1.8,1.8,0,0,0-.93-.21,26.45,26.45,0,0,0,0-3.21c0-.18,0-.36-.06-.53l.1-.1-.1-.09,0,0a9.73,9.73,0,0,0-1.37-4A14,14,0,0,0,36.4,9.24a6.72,6.72,0,0,0,.8-1.87.33.33,0,0,0,0-.24.32.32,0,0,0,.12-.2,5.29,5.29,0,0,0-.06-2.1.3.3,0,0,0-.15-.21.33.33,0,0,0,0-.26A6.45,6.45,0,0,0,35.69,2a.33.33,0,0,0-.46,0,4.24,4.24,0,0,0-.41.44A7.35,7.35,0,0,0,33.34.11a.33.33,0,0,0-.46,0A6.41,6.41,0,0,0,31,5.4,15.89,15.89,0,0,0,25.9,4.09a17.81,17.81,0,0,0-1.79,0,9.66,9.66,0,0,0-1,.13,17.45,17.45,0,0,0-10.71,6.43,10,10,0,0,0-1.91,4.82h0v0a19.55,19.55,0,0,0-.08,3.9,1.77,1.77,0,0,0-.95.19,2,2,0,0,0-1,1.49,8,8,0,0,0,2.54,7,43.8,43.8,0,0,0,2.63,12.63,11.06,11.06,0,0,0,3.74,4.43,7.22,7.22,0,0,1-3.34,3.68L14.68,50a8.58,8.58,0,0,0,3.8-4c1,.69,2,1.37,3.21,2.06a6.63,6.63,0,0,0,3.24.89h.13A8.34,8.34,0,0,0,28.47,48c1-.53,2.09-1.14,3.15-1.86.46-.31.89-.64,1.29-1A8.63,8.63,0,0,0,37,50l.62-1.15A7.26,7.26,0,0,1,34,44.23a10.22,10.22,0,0,0,2.37-3.49c.7-1.81,1.73-7.58,2.43-12.51,1.72-1.09,3.29-4.53,2.72-7.15A2.05,2.05,0,0,0,40.53,19.61ZM9.76,21.36a.93.93,0,0,1,.34-.61.73.73,0,0,1,.45,0c0,.29,0,.58.08.88.09,1,.18,2.08.21,3.09,0,.47.05.94.08,1.41A6.78,6.78,0,0,1,9.76,21.36ZM35,5.87l0,0a.33.33,0,0,0,.17-.23,6,6,0,0,0-.06-2.36l0,0,.37-.48a5.89,5.89,0,0,1,1,1.56L36,4.46a.32.32,0,0,0,.07.61l.55.11a4.47,4.47,0,0,1,0,1.46l-.51.24a.33.33,0,0,0,.07.62l.24,0a5.88,5.88,0,0,1-.54,1.2c-.4-.39-.8-.76-1.21-1.09l-.2-.15A7.76,7.76,0,0,0,35,6.13.34.34,0,0,0,35,5.87Zm-.47-.53-.36.17a4.42,4.42,0,0,1,.38-1.4A5.64,5.64,0,0,1,34.53,5.34Zm-.18,2L34,7.13a5.16,5.16,0,0,0,.21-.49A4.28,4.28,0,0,0,34.35,7.38ZM33.08.8a6.58,6.58,0,0,1,1.14,1.86l-.46.2a.33.33,0,0,0-.19.34.32.32,0,0,0,.26.28l.26,0a5.31,5.31,0,0,0-.54,3.3,15.17,15.17,0,0,0-1.73-1l-.14-.07A5.54,5.54,0,0,1,33.08.8ZM13.48,11.44A16.17,16.17,0,0,1,23.37,5.5c.28,0,.56-.08.85-.11l.79,0,.79,0A14.69,14.69,0,0,1,31.23,7a15.19,15.19,0,0,1,2.35,1.48,1.85,1.85,0,0,1,.3.23A13,13,0,0,1,35.33,10,13.19,13.19,0,0,1,37,12.14a8,8,0,0,1,.89,2.08c-2.73-2.14-5.55-4.33-9-5.34l-.28-.08a3.64,3.64,0,0,0-7.23,0l-.12,0-.14,0c-3.46,1-6.28,3.2-9,5.35A8.3,8.3,0,0,1,13.48,11.44ZM27.29,9.25a2.18,2.18,0,0,1,0,.25,2.35,2.35,0,0,1-.33.94,2.27,2.27,0,0,1-3.9,0,2.08,2.08,0,0,1-.33-.94,2.29,2.29,0,0,1,0-.25,2.38,2.38,0,0,1,.14-.76,2.28,2.28,0,0,1,4.31,0A2.14,2.14,0,0,1,27.29,9.25ZM38.28,20l-.05,1.25c-.09,3.37-2,16.26-3.09,19a10.67,10.67,0,0,1-4.26,4.8c-1,.68-2.09,1.28-3,1.79a6.91,6.91,0,0,1-2.87.76,5.26,5.26,0,0,1-2.64-.71,38.78,38.78,0,0,1-3.5-2.27l-.25-.19a10.61,10.61,0,0,1-3.72-4.18,42.73,42.73,0,0,1-2.56-12.57c-.08-1-.13-2-.16-3s-.13-2.13-.22-3.17c0-.44-.08-.87-.11-1.31A27.3,27.3,0,0,1,11.71,17q.73-.55,1.47-1.14c2.58-2,5.25-4.15,8.36-5.09l.15-.05a3.67,3.67,0,0,0,2.87,2.12h0A2.68,2.68,0,0,0,24,14.1a2.17,2.17,0,0,0,.41,1l-1.23,1.23L25,18.18l1.85-1.85L25.66,15.1a2.17,2.17,0,0,0,.41-1,2.82,2.82,0,0,0-.57-1.25,3.64,3.64,0,0,0,2.81-2.1h0c3.18.92,5.9,3.06,8.52,5.12.49.39,1,.77,1.46,1.13C38.34,18,38.31,19,38.28,20Zm.79,6.09c.26-2.06.44-3.81.47-4.8l0-.61a.68.68,0,0,1,.34.05.88.88,0,0,1,.33.61A6.7,6.7,0,0,1,39.07,26.11Z"/><path class="cls-2" d="M25,23.73a1.26,1.26,0,0,0-1.07.6,1.28,1.28,0,0,0-.2.67c0,.05,0,.1,0,.15a1.32,1.32,0,0,0,.31.69,1.29,1.29,0,0,0,.95.43,1.29,1.29,0,0,0,1.26-1.13s0-.09,0-.14a1.28,1.28,0,0,0-.2-.67A1.24,1.24,0,0,0,25,23.73Z"/><path class="cls-2" d="M26.46,24.36H23.54a.64.64,0,0,0,0,1.28h2.92a.64.64,0,0,0,0-1.28Z"/></g></g></svg>