<svg xmlns="http://www.w3.org/2000/svg" viewBox="0 0 51 44.93"><title>message-outline</title><g id="Layer_2" data-name="Layer 2"><g id="Layer_1-2" data-name="Layer 1"><path d="M25.5,0C9.06,0,0,6.93,0,19.52,0,31.7,8.58,37.87,25.53,37.87a5.36,5.36,0,0,1,4.24,2.05l3.37,4.29a2.48,2.48,0,0,0,3.54-.05L42,37.38l1.73-2.15c3.74-4.62,7.27-9,7.27-15.71C51,6.93,41.94,0,25.5,0ZM49.17,19.52c0,6.09-3.18,10-6.86,14.56-.57.7-1.16,1.43-1.74,2.17l-5.24,6.68a.79.79,0,0,1-.83.06l-3.29-4.2A7.17,7.17,0,0,0,25.5,36c-7.37,0-13.09-1.2-17-3.56-4.5-2.72-6.68-7-6.68-13C1.83,4.13,16.66,1.83,25.5,1.83S49.17,4.13,49.17,19.52Z"/></g></g></svg>