<svg xmlns="http://www.w3.org/2000/svg" viewBox="0 0 50 50"><defs><style>.cls-1{fill:none;}.cls-2{fill:#0a0a0a;}</style></defs><title>mpesa</title><g id="Layer_2" data-name="Layer 2"><g id="Layer_1-2" data-name="Layer 1"><rect class="cls-1" width="50" height="50"/><path class="cls-2" d="M47.81,18.47,37.93,13.8v-10A3.77,3.77,0,0,0,34.16,0H15a3.77,3.77,0,0,0-3.77,3.77V23.4c-4.88,3.52-9.07,2.78-9.07,2.78a90.76,90.76,0,0,0,9.07,2.08v18A3.77,3.77,0,0,0,15,50H34.16a3.77,3.77,0,0,0,3.77-3.77v-20C45.2,23.08,47.81,18.47,47.81,18.47ZM34.4,4.13v8l-3-1.43C29.32,15,22.45,23.26,20.91,23s-4.86-4.45-4.86-4.45c-.42.56-.84,1.08-1.26,1.57v-16Zm-17,40.81v-2.4h2.39v2.4ZM22.6,46V41.9h4.14V46Zm6.9-1.09v-2.4h2.39v2.4Zm4.9-6.12H14.79v-10c8.33,1,14.74.27,19.61-1.21Z"/></g></g></svg>