<svg xmlns="http://www.w3.org/2000/svg" viewBox="0 0 50 50"><defs><style>.cls-1{fill:none;}.cls-2{fill:#0a0a0a;}</style></defs><title>mpesa-outline</title><g id="Layer_2" data-name="Layer 2"><g id="Layer_1-2" data-name="Layer 1"><rect class="cls-1" width="50" height="50"/><path class="cls-2" d="M17.42,41.58h-1V45.9h4.32V41.58H17.42Zm2.39,3.36H17.42v-2.4h2.39Z"/><path class="cls-2" d="M37.93,13.8v-10A3.77,3.77,0,0,0,34.16,0H15a3.77,3.77,0,0,0-3.77,3.77V23.4A13.93,13.93,0,0,1,3.2,26.24a7,7,0,0,1-1-.06,90.76,90.76,0,0,0,9.07,2.08v18A3.77,3.77,0,0,0,15,50H34.16a3.77,3.77,0,0,0,3.77-3.77v-20c7.27-3.19,9.88-7.8,9.88-7.8Zm-.39,11.59-.58.26V46.23A2.81,2.81,0,0,1,34.16,49H15a2.81,2.81,0,0,1-2.8-2.81V27.45l-.8-.14c-1.33-.23-2.7-.5-4.08-.81a16.88,16.88,0,0,0,4.48-2.32l.4-.29V3.77A2.81,2.81,0,0,1,15,1H34.16A2.81,2.81,0,0,1,37,3.77V14.41l.55.26,8.86,4.18A22.27,22.27,0,0,1,37.54,25.39Z"/><path class="cls-2" d="M14.79,3.17h-1V22.72l1.69-2c.18-.21.37-.43.55-.66,1.22,1.45,3.29,3.64,4.69,3.87H21c.41,0,1.68,0,5.8-4.91a48.24,48.24,0,0,0,5-7.1L34,13l1.37.65V3.17H14.79Zm19.61,9-3-1.43C29.35,15,22.65,23,21,23h-.07c-1.54-.24-4.86-4.45-4.86-4.45-.42.56-.84,1.08-1.26,1.57v-16H34.4Z"/><path class="cls-2" d="M29.5,41.58h-1V45.9h4.31V41.58H29.5Zm2.39,3.36H29.5v-2.4h2.39Z"/><path class="cls-2" d="M22.17,28.29a61.54,61.54,0,0,1-7.26-.46l-1.08-.14V39.78H35.36V26.28l-1.24.37A41.1,41.1,0,0,1,22.17,28.29ZM34.4,38.82H14.79v-10a59.69,59.69,0,0,0,7.38.47A41.86,41.86,0,0,0,34.4,27.57Z"/><path class="cls-2" d="M22.6,40.93h-1V47H27.7V40.93H22.6ZM26.74,46H22.6V41.9h4.14Z"/></g></g></svg>