<svg xmlns="http://www.w3.org/2000/svg" viewBox="0 0 50 50"><defs><style>.cls-1{fill:none;}.cls-2{fill:#0a0a0a;}</style></defs><title>music</title><g id="Layer_2" data-name="Layer 2"><g id="Layer_1-2" data-name="Layer 1"><rect class="cls-1" width="50" height="50"/><path class="cls-2" d="M39.71,6.9c-.35-.34-.7-.66-1.06-1l.11-.5a.62.62,0,0,0-.46-.73l-.15,0,.24-1.14A.6.6,0,0,0,38,2.81a.58.58,0,0,0-.72.42L37,4.42l-.17,0a.41.41,0,0,0-.22,0,21.06,21.06,0,0,0-5-2.44.84.84,0,0,0-.25-.74.87.87,0,0,0-1.23,0l-.26.25a20.58,20.58,0,0,0-2.08-.38.93.93,0,0,0-.25-.55.88.88,0,0,0-1.24,0l-.38.39L25,.89l-1,0v0a.88.88,0,0,0-1.75,0v.2a20.39,20.39,0,0,0-2.07.38l-.26-.25a.87.87,0,0,0-1.48.74,20.64,20.64,0,0,0-5,2.44h0L13,4.46l-.28-1.23A.58.58,0,0,0,12,2.81a.6.6,0,0,0-.41.72l.25,1.19a.61.61,0,0,0-.43.71l.08.35c-.42.36-.83.73-1.23,1.12a1.24,1.24,0,1,0,1.29,1.27c.27-.27.56-.54.85-.79l4.85,23a10.48,10.48,0,0,0,3.5,16.66l.49,2.32A.81.81,0,1,0,22.82,49l-.29-1.3a10.66,10.66,0,0,0,4.94,0L27.18,49a.81.81,0,0,0,1.56.42l.49-2.32a10.48,10.48,0,0,0,3.5-16.66l4.85-23c.29.25.58.51.85.78A1.24,1.24,0,1,0,39.71,6.9ZM12.93,6.17a.3.3,0,1,1,0-.59.3.3,0,1,1,0,.59ZM29.75,3.92,27.44,27.3l-.07,0,1.42-23.6,0,0A.86.86,0,0,0,29.75,3.92ZM26.21,39.16h0l0-1h.07Zm-.49,0h0v-1h.06Zm-.49,0h-.05l0-1h.08Zm-.5,0h0l0-1h.05Zm-.48,0h0l-.07-1h.06Zm-.48,0H23.7l-.09-1h.09ZM28.39,3l-1.46,24.2-.36-.06.81-24.3Zm-1.85-.24.39,0-.81,24.29-.29,0,.29-23.9.12-.1ZM25,3.05a.89.89,0,0,0,.66.25L25.38,27H25l-.3-24.32h.07A.88.88,0,0,0,25,3.05Zm-1-.33h.31L24.57,27l-.37,0-1-23.48A.88.88,0,0,0,24,2.72Zm-1.73.16a.88.88,0,0,0,.55.63l1,23.58-.39.05L21.62,3Zm-1.06.85h0l0-.07,1.69,23.56-.36.08L20.28,3.93A.87.87,0,0,0,21.17,3.73ZM18.48,29.29,13.6,7.12,14,7.05a.62.62,0,0,0,.47-.73l-.09-.41a18.82,18.82,0,0,1,5.32-2.47l.14.14,2.32,23.84A10.28,10.28,0,0,0,18.48,29.29Zm3.34,9.87a.49.49,0,0,1,0-1h1.33l.1,1ZM25,44.79c-1.07,0-1.93-.4-1.93-1.47a1.3,1.3,0,0,1,.48-1.07l.07.77.45-.05v0l.34,0v.23h.45V43h.33v.12h.4l.45,0v0l.38,0,0-.86a1.27,1.27,0,0,1,.46,1C26.93,44.39,26.07,44.79,25,44.79Zm3.18-5.63H26.72l.09-1h1.37a.49.49,0,0,1,0,1Zm3.34-9.87a10.41,10.41,0,0,0-3.64-1.87L30.24,3.55l.1-.11A19.14,19.14,0,0,1,35.84,6l-.06.28a.61.61,0,0,0,.46.73l.17,0ZM37.27,6.17a.3.3,0,1,1,0-.59.3.3,0,1,1,0,.59Z"/></g></g></svg>