<svg xmlns="http://www.w3.org/2000/svg" viewBox="0 0 50 50"><defs><style>.cls-1{fill:none;}.cls-2{fill:#212121;}</style></defs><title>music-outline</title><g id="Layer_2" data-name="Layer 2"><g id="Layer_1-2" data-name="Layer 1"><rect class="cls-1" width="50" height="50"/><path class="cls-2" d="M39.66,6.82c-.27-.27-.55-.52-.82-.76l.06-.3a.94.94,0,0,0-.12-.71,1.07,1.07,0,0,0-.41-.35l.17-.8a.92.92,0,0,0-.65-1.11.91.91,0,0,0-1.12.66l-.19.86h0A20.77,20.77,0,0,0,31.85,2a1.22,1.22,0,0,0-.35-.73,1.15,1.15,0,0,0-.84-.35,1.19,1.19,0,0,0-.85.35l-.12.12c-.55-.12-1.11-.23-1.67-.31A1.19,1.19,0,0,0,26.89.26,1.23,1.23,0,0,0,26,.61l-.28.28c-.55,0-1,0-1.49,0a1.2,1.2,0,0,0-2.35.21q-.81.12-1.62.3l-.11-.12a1.19,1.19,0,0,0-.85-.35,1.15,1.15,0,0,0-.84.35,1.2,1.2,0,0,0-.35.73,20.5,20.5,0,0,0-4.72,2.32l-.2-.9a.91.91,0,0,0-1.77.46l.19.92a.93.93,0,0,0-.36,1l0,.15c-.33.29-.66.59-1,.91a1.55,1.55,0,0,0,.2,3.09,1.56,1.56,0,0,0,1.54-1.37l.31-.29,4.63,22A10.68,10.68,0,0,0,20.54,47L21,49.16a1.11,1.11,0,0,0,1.09.84,1,1,0,0,0,.29,0,1.11,1.11,0,0,0,.69-.53,1.08,1.08,0,0,0,.11-.84L23,47.81a10.76,10.76,0,0,0,4,0l-.17.76a1.13,1.13,0,0,0,.8,1.39,1.13,1.13,0,0,0,.86-.11,1.15,1.15,0,0,0,.52-.71L29.46,47A10.68,10.68,0,0,0,33,30.25l4.63-22c.11.09.21.19.31.29a1.57,1.57,0,0,0,1.54,1.36,1.55,1.55,0,0,0,.19-3.09Zm-.19,2.42a.88.88,0,0,1-.88-.85V8.25l-.09-.09c-.27-.26-.55-.52-.86-.79L37.2,7,32.27,30.45l.11.12A10,10,0,0,1,29,46.48l-.16.07L28.37,49a.48.48,0,0,1-.57.33.44.44,0,0,1-.28-.22.47.47,0,0,1,0-.37l.4-1.81-.52.13a10.17,10.17,0,0,1-4.72,0l-.52-.13.41,1.83a.48.48,0,0,1-.05.35.44.44,0,0,1-.28.22.48.48,0,0,1-.35,0,.43.43,0,0,1-.21-.27l-.52-2.45L21,46.48a10,10,0,0,1-3.34-15.91l.11-.12L12.8,7l-.43.37c-.29.26-.58.52-.86.79l-.09.1v.13a.89.89,0,0,1-1.77,0,.9.9,0,0,1,.85-.89h.13l.09-.09c.39-.38.79-.75,1.2-1.09l.15-.13-.12-.54a.26.26,0,0,1,.19-.31l.29-.09-.31-1.49a.24.24,0,0,1,.17-.3.24.24,0,0,1,.3.16l.34,1.54L13.67,5l.05,0a20.52,20.52,0,0,1,4.87-2.37l.27-.08,0-.28A.53.53,0,0,1,19,1.75a.54.54,0,0,1,.75,0l.38.38.18,0a19.23,19.23,0,0,1,2-.37l.29,0V1.2a.53.53,0,0,1,.53-.53.52.52,0,0,1,.53.53v.38H24l1,0,.88,0H26l.48-.48a.53.53,0,0,1,.9.33l0,.27.27,0a19.41,19.41,0,0,1,2,.37l.18,0,.38-.38a.54.54,0,0,1,.75,0,.53.53,0,0,1,.15.45l0,.28.26.09a19.7,19.7,0,0,1,4.86,2.36l.11.07.13,0a.14.14,0,0,1,.09,0l.5.11.32-1.49a.26.26,0,0,1,.31-.17.25.25,0,0,1,.17.32L37.58,5.2l.47.1a.23.23,0,0,1,.17.12.24.24,0,0,1,0,.2l-.15.69.15.13,1,.94.09.09h.13a.91.91,0,0,1,.86.89A.88.88,0,0,1,39.47,9.24Z"/><path class="cls-2" d="M37.11,5.5a.63.63,0,0,0-.63.63.63.63,0,1,0,1.25,0A.63.63,0,0,0,37.11,5.5Z"/><circle class="cls-2" cx="13.09" cy="6.13" r="0.63"/><path class="cls-2" d="M36,6.84a.28.28,0,0,1,0-.2l.11-.5L35.88,6a19.1,19.1,0,0,0-5.51-2.61l-.15,0h0l-.42.41,0,0a.53.53,0,0,1-.72,0,.53.53,0,0,1-.15-.42l0-.31L28.8,3l-.21,0-.23,0c-.33-.06-.67-.11-1-.15l-.44,0-.36,0h-.16L26.11,3,26,3.11a.52.52,0,0,1-.33.14.51.51,0,0,1-.42-.14.54.54,0,0,1-.13-.22L25,2.65H24l-.31,0V3a.53.53,0,0,1-.4.5l-.13,0a.53.53,0,0,1-.32-.12.46.46,0,0,1-.19-.3l-.07-.31-.31.05-.58.09-.23,0-.2,0-.1,0,0,.3a.54.54,0,0,1-.15.43.53.53,0,0,1-.75,0l-.17-.17-.25-.25-.19.06h0a18.91,18.91,0,0,0-5.31,2.47L14.1,6l.13.62a.24.24,0,0,1,0,.2A.3.3,0,0,1,14,7l-.67.15,5,22.71.42-.33a9.91,9.91,0,0,1,3.32-1.75l1,10H21.86a.81.81,0,0,0,0,1.62h1.43l.24,2.34a1.59,1.59,0,0,0-.77,1.43c0,1.11.84,1.78,2.24,1.78s2.24-.67,2.24-1.78a1.58,1.58,0,0,0-.77-1.43l.07-1.13.12-1.21h1.48a.81.81,0,0,0,0-1.62H26.82l1-10a9.76,9.76,0,0,1,3.41,1.77l.42.33,5-22.75L36.16,7A.3.3,0,0,1,36,6.84Zm-9.89-3a1.41,1.41,0,0,0,.36-.24l.19-.19.24,0-.77,23.29-.3,0Zm.07,34.82v-.29h.05l0,.29Zm0,.67-.06.93v0l0-.93Zm-.36-12,.29,0-.34,10.31h-.07Zm-.13,11h.05v.29h0Zm0,1h0l-.05,1.48v.57h0l0-.56Zm-.9-35.73a1.18,1.18,0,0,0,.88.34l-.27,22.74H25L24.73,3.53Zm.43,37.73h0v-.08l0-1.92h.05l0,1.92Zm0-2.67v-.29h.07v.29Zm0-1L25,27.32h.34l-.12,10.37Zm-.42,2.05,0-.43h0Zm0-1.39v.29h0v-.29Zm0-.66h-.06l-.42-10.34.35,0Zm-.4,2.5-.06-.88h0Zm-.5-.88L24,41.43v0h0v0l-.22-2.12Zm-.14-.67,0-.29h.1l0,.29Zm-.27-11.2.38-.05.43,10.3h-.07Zm.84,10.91v.29H24.2l0-.29Zm0-35h0l.3,23.33-.38,0-.94-22.5A1.21,1.21,0,0,0,24.26,3.33Zm-2.47.26.26,0a1.19,1.19,0,0,0,.77.6l.94,22.57-.41.06L21.71,3.86A.84.84,0,0,0,21.79,3.59Zm-3,25.06-4.63-21h0a.92.92,0,0,0,.59-.41,1,1,0,0,0,.13-.7l0-.18A18.11,18.11,0,0,1,19.63,4.1l.05.05L22,27.07A10.53,10.53,0,0,0,18.78,28.65ZM20.16,4.5a1.17,1.17,0,0,0,1.14-.13l1.61,22.48-.44.1Zm1.7,34.14a.14.14,0,0,1-.14-.14.15.15,0,0,1,.14-.15H23.2l0,.29Zm.68-11,.42-.1.73,10.17h-.12Zm3.95,15a.28.28,0,0,1,0,.12,1.66,1.66,0,0,1,0,.33c0,.74-.53,1.11-1.57,1.11s-1.57-.37-1.57-1.11a1.66,1.66,0,0,1,0-.33.28.28,0,0,1,0-.12,1.74,1.74,0,0,1,.11-.18v.07a1.14,1.14,0,0,0-.11.11l0,.12h0c0,.3.69.55,1.53.55s1.53-.25,1.53-.55h0l0-.12a.46.46,0,0,0-.07-.07v-.05A.75.75,0,0,1,26.49,42.63Zm1.65-4.28a.15.15,0,0,1,.14.15.14.14,0,0,1-.14.14H26.73l0-.29Zm-1.87-.66H26.2l.34-10.25.34,0Zm.29-10.93.77-23.3.88.13a1.58,1.58,0,0,0,.09.31L26.92,26.82ZM27.24,29l.08-1.39h.05Zm.2-2.05-.08,0L28.72,4.39a1.19,1.19,0,0,0,.93.17Zm3.78,1.72A10.53,10.53,0,0,0,27.88,27L30.12,4.33a.48.48,0,0,0,.11-.09l.14-.13a18.09,18.09,0,0,1,4.95,2.33V6.5a.93.93,0,0,0,.55,1.06Z"/></g></g></svg>