<svg xmlns="http://www.w3.org/2000/svg" viewBox="0 0 50 50"><defs><style>.cls-1{fill:none;}.cls-2{fill:#212121;}</style></defs><title>pause2-outline</title><g id="Layer_2" data-name="Layer 2"><g id="Layer_1-2" data-name="Layer 1"><rect class="cls-1" y="0.61" width="50" height="49.39"/><path class="cls-2" d="M8,49.38a1.52,1.52,0,0,1-1.58-1.46V1.46A1.53,1.53,0,0,1,8,0,1.52,1.52,0,0,1,9.6,1.46V47.92A1.51,1.51,0,0,1,8,49.38Z"/><path class="cls-2" d="M42,49.38a1.51,1.51,0,0,1-1.57-1.46V1.46a1.58,1.58,0,0,1,3.15,0V47.92A1.52,1.52,0,0,1,42,49.38Z"/></g></g></svg>