<svg xmlns="http://www.w3.org/2000/svg" viewBox="0 0 51 41.95"><title>picture-outline</title><g id="Layer_2" data-name="Layer 2"><g id="Layer_1-2" data-name="Layer 1"><path d="M44.08,42H6.92A6.93,6.93,0,0,1,0,35V6.92A6.94,6.94,0,0,1,6.92,0H44.08A6.94,6.94,0,0,1,51,6.92V35A6.93,6.93,0,0,1,44.08,42ZM1.48,35.87a5.5,5.5,0,0,0,5.44,4.67H44.08A5.51,5.51,0,0,0,49.59,35V19.6c-6.47-.71-10.7,2.67-15.16,6.24-.79.63-1.53,1.22-2.27,1.79-3.73,2.83-8,5.41-13.95,4.82C6.63,31.29,2.35,35,1.48,35.87ZM1.41,16.74V34c2.15-1.64,7.05-4,16.94-3,4.56.45,7.94-1,11.43-3.42a11.27,11.27,0,0,1-7.11-4.95C17.44,15.36,9.51,13.15,1.41,16.74ZM9,13.62a16.7,16.7,0,0,1,4.35.57,19.16,19.16,0,0,1,10.43,7.66c2.63,3.7,5.59,4.51,7.67,4.51.69-.53,1.38-1.08,2.05-1.62,4.47-3.57,9.08-7.25,16.05-6.55V6.92a5.51,5.51,0,0,0-5.51-5.51H6.92A5.52,5.52,0,0,0,1.41,6.92V15.2A20.1,20.1,0,0,1,9,13.62Z"/></g></g></svg>