<svg xmlns="http://www.w3.org/2000/svg" viewBox="0 0 50 40.88"><title>picture</title><g id="Layer_2" data-name="Layer 2"><g id="Layer_1-2" data-name="Layer 1"><path d="M43.73,0H6.27A6.27,6.27,0,0,0,0,6.27V34.61a6.27,6.27,0,0,0,6.27,6.27H43.73A6.27,6.27,0,0,0,50,34.61V6.27A6.27,6.27,0,0,0,43.73,0ZM26,28.9l.09,0Zm21.93-11c-7.43-.69-12,4-17,7.87h-.08c-3.57,2.61-7.67,4.78-13.18,4.23-8.25-.83-12.86.73-15.28,2.19l-.64-1.07c2.57-1.56,7.45-3.23,16-2.37,4.35.44,7.73-.88,11.13-3.16a10.24,10.24,0,0,1-6.17-4.44C17.72,14.09,10.14,11.68,2.08,15V6.27A4.2,4.2,0,0,1,6.27,2.08h0L10.68,2l7.45.06h25.6a4.2,4.2,0,0,1,4.19,4.19Z"/></g></g></svg>