<svg xmlns="http://www.w3.org/2000/svg" viewBox="0 0 50 50"><defs><style>.cls-1{fill:none;}.cls-2{fill:#0a0a0a;}</style></defs><title>rewind-outline</title><g id="Layer_2" data-name="Layer 2"><g id="Layer_1-2" data-name="Layer 1"><rect class="cls-1" width="50" height="50"/><path class="cls-2" d="M46.7,12.14h0a1.73,1.73,0,0,1,1.73,1.73V36.13a1.73,1.73,0,0,1-1.73,1.73,1.69,1.69,0,0,1-.92-.28L28.55,26.44a1.72,1.72,0,0,1,0-2.88L45.78,12.42a1.69,1.69,0,0,1,.92-.28m0-1.57a3.32,3.32,0,0,0-1.78.53L27.7,22.24a3.28,3.28,0,0,0,0,5.52L44.92,38.9A3.29,3.29,0,0,0,50,36.13V13.87a3.3,3.3,0,0,0-3.3-3.3Z"/><path class="cls-2" d="M20.5,12.14h0a1.73,1.73,0,0,1,1.73,1.73V36.13a1.71,1.71,0,0,1-2.65,1.45L2.36,26.44a1.71,1.71,0,0,1,0-2.88L19.58,12.42a1.74,1.74,0,0,1,.92-.28m0-1.57a3.28,3.28,0,0,0-1.77.53L1.5,22.24a3.29,3.29,0,0,0,0,5.52L18.73,38.9a3.28,3.28,0,0,0,5.07-2.77V13.87a3.29,3.29,0,0,0-3.3-3.3Z"/></g></g></svg>