<svg xmlns="http://www.w3.org/2000/svg" viewBox="0 0 50 50"><defs><style>.cls-1{fill:none;}.cls-2{fill:#0a0a0a;}.cls-3{fill:#212121;}</style></defs><title>rolling-stick-outline</title><g id="Layer_2" data-name="Layer 2"><g id="Layer_1-2" data-name="Layer 1"><rect class="cls-1" width="50" height="50"/><path class="cls-1" d="M47.63,1.29a1,1,0,0,0-.77.32L46.43,2,46.11,2a2.22,2.22,0,0,0-1.9.63l-3.6,3.6-.3,0-.45,0a3.93,3.93,0,0,0-2.8,1.16L7.32,37.06a4,4,0,0,0-1.14,3.25l0,.3-3.6,3.6A2.22,2.22,0,0,0,2,46.11l.05.32-.43.43a1.07,1.07,0,0,0,0,1.53,1.06,1.06,0,0,0,.77.32,1,1,0,0,0,.76-.32L3.57,48l.32,0,.32,0a2.22,2.22,0,0,0,1.58-.66l3.6-3.6.31,0,.43,0a4,4,0,0,0,2.81-1.16L42.68,12.94A4,4,0,0,0,43.82,9.7l0-.31,3.6-3.6A2.22,2.22,0,0,0,48,3.89l0-.32.42-.43a1,1,0,0,0,.32-.76,1.06,1.06,0,0,0-.32-.77A1,1,0,0,0,47.63,1.29Z"/><path class="cls-2" d="M3.6,48.85l0,0,0,0L3.39,49Z"/><path class="cls-2" d="M44.48,10a2.09,2.09,0,0,0,0-.25V9.62h0C44.47,9.76,44.48,9.89,44.48,10Z"/><path class="cls-2" d="M48.68,4.17c0-.08,0-.15,0-.22l0-.15h0A2.31,2.31,0,0,1,48.68,4.17Z"/><path class="cls-2" d="M1.35,46.2a2.83,2.83,0,0,1,0-.29.61.61,0,0,0,0,.14v.15Z"/><path class="cls-2" d="M5.54,40.38c0-.1,0-.2,0-.29s0,.09,0,.14v.15Z"/><path class="cls-2" d="M49,3.49l-.1.11-.2.2.2-.2Z"/><path class="cls-2" d="M39.89,5.52h0Z"/><path class="cls-2" d="M3.8,48.65h0l.13,0Z"/><path class="cls-2" d="M46,1.33l.2,0H46Z"/><path class="cls-2" d="M40.18,5.53h0Z"/><path class="cls-2" d="M9.82,44.48l-.19,0h.19Z"/><path class="cls-2" d="M45.87,1.33h0Z"/><path class="cls-2" d="M45.6,1.33h0Z"/><path class="cls-3" d="M49.31.7A2.38,2.38,0,0,0,46,.68a3.49,3.49,0,0,0-2.66,1L40.13,4.88a5.23,5.23,0,0,0-4,1.53L6.41,36.15a5.24,5.24,0,0,0-1.53,4L1.71,43.3A3.56,3.56,0,0,0,.68,46,2.36,2.36,0,0,0,0,47.62,2.34,2.34,0,0,0,.7,49.3a2.37,2.37,0,0,0,3.34,0h.17a3.48,3.48,0,0,0,2.49-1l3.17-3.17h.26a5.23,5.23,0,0,0,3.72-1.54L43.59,13.85a5.23,5.23,0,0,0,1.53-4L48.29,6.7a3.49,3.49,0,0,0,1-2.66A2.38,2.38,0,0,0,49.31.7ZM48.67,4c0,.07,0,.14,0,.22a2.31,2.31,0,0,0,0-.37h0l.2-.2.1-.11-.1.11-.2.2Zm-.28-.81L48,3.57l0,.32a2.22,2.22,0,0,1-.63,1.9l-3.6,3.6,0,.31a4,4,0,0,1-1.14,3.24L12.94,42.68a4,4,0,0,1-2.81,1.16l-.43,0-.31,0-3.6,3.6A2.22,2.22,0,0,1,4.21,48l-.32,0-.32,0-.43.42a1,1,0,0,1-.76.32,1.06,1.06,0,0,1-.77-.32,1.07,1.07,0,0,1,0-1.53L2,46.43,2,46.11a2.22,2.22,0,0,1,.63-1.9l3.6-3.6,0-.3a4,4,0,0,1,1.14-3.25L37.06,7.32a3.93,3.93,0,0,1,2.8-1.16l.45,0,.3,0,3.6-3.6A2.22,2.22,0,0,1,46.11,2l.32.05.43-.43a1.07,1.07,0,0,1,1.53,0,1.06,1.06,0,0,1,.32.77A1,1,0,0,1,48.39,3.14ZM44.47,9.77a2.09,2.09,0,0,1,0,.25c0-.13,0-.26,0-.39h0ZM3.63,48.82l0,0L3.39,49l.21-.18Zm-2.3-2.91a2.83,2.83,0,0,0,0,.29h0v-.15A.61.61,0,0,1,1.33,45.91Zm4.19-5.82c0,.09,0,.19,0,.29h0v-.15S5.52,40.14,5.52,40.09ZM46.2,1.35l-.2,0h.2Zm-.33,0h0Zm-.37,0h0Zm-5.12,4.2h0Zm-.49,0h0ZM3.8,48.65l.13,0-.13,0Zm5.83-4.19.19,0H9.63Z"/></g></g></svg>