<svg xmlns="http://www.w3.org/2000/svg" viewBox="0 0 50 50"><defs><style>.cls-1{fill:none;}</style></defs><title>round-loop</title><g id="Layer_2" data-name="Layer 2"><g id="Layer_1-2" data-name="Layer 1"><rect class="cls-1" width="50" height="50"/><path d="M47.82,20.16l-1.21-.05a22.19,22.19,0,0,0-34-13.51l2.86,4.23a17.08,17.08,0,0,1,25.83,9h-.15A2.27,2.27,0,0,0,39,23.19l3.09,5.95a2.27,2.27,0,0,0,3.93.17l3.61-5.66A2.27,2.27,0,0,0,47.82,20.16Z"/><path d="M25,42.08A17.1,17.1,0,0,1,8.73,30.13h.15A2.27,2.27,0,0,0,11,26.81L7.9,20.86A2.27,2.27,0,0,0,4,20.69L.36,26.35a2.27,2.27,0,0,0,1.82,3.49l1.21.05a22.19,22.19,0,0,0,34,13.51l-2.86-4.23A17,17,0,0,1,25,42.08Z"/></g></g></svg>