<svg xmlns="http://www.w3.org/2000/svg" viewBox="0 0 50 50"><defs><style>.cls-1{fill:#0a0a0a;}.cls-2{fill:none;}</style></defs><title>security</title><g id="Layer_2" data-name="Layer 2"><g id="Layer_1-2" data-name="Layer 1"><path class="cls-1" d="M35.14,24.86c0-.75,0-1.51,0-2.25-.58-.44-1.17-.89-1.78-1.37-2.23-1.76-4.53-3.56-7.2-4.35a3.09,3.09,0,0,1-2.38,1.79,2.28,2.28,0,0,1,.48,1.05,1.9,1.9,0,0,1-.34.84l1,1-1.56,1.57L21.86,21.6l1-1a1.9,1.9,0,0,1-.34-.84A2.3,2.3,0,0,1,23,18.68a3.08,3.08,0,0,1-2.44-1.78c-2.66.78-4.94,2.58-7.17,4.33-.61.48-1.2.94-1.79,1.38,0,.75,0,1.51.1,2.27a1.13,1.13,0,0,0-1.72.85c-.43,2,.84,4.77,2.14,5.5A36.61,36.61,0,0,0,14.35,42a8.57,8.57,0,0,0,2.85,3.4,6.16,6.16,0,0,1-3,3.64l.52,1a7.21,7.21,0,0,0,3.43-3.92c.89.64,1.81,1.23,2.76,1.79a5.21,5.21,0,0,0,2.48.67,6.29,6.29,0,0,0,2.71-.71c.88-.48,1.76-1,2.6-1.54a13.43,13.43,0,0,0,1.22-.92A7.29,7.29,0,0,0,33.55,50l.52-1a6.27,6.27,0,0,1-3.25-4.53A7.79,7.79,0,0,0,32.46,42a73.89,73.89,0,0,0,2.06-10.71c1.35-.61,2.71-3.51,2.26-5.55A1.1,1.1,0,0,0,35.14,24.86Zm-16,9.24h-3a.66.66,0,0,1-.66-.65.67.67,0,0,1,.66-.66h3a.66.66,0,0,1,.66.66A.65.65,0,0,1,19.14,34.1Z"/><path class="cls-1" d="M20.35,15.25a3.07,3.07,0,0,1,6.1,0c3.09.85,5.65,2.86,8,4.69l.55.43a7.37,7.37,0,0,0-1-2.59,11.68,11.68,0,0,0-1.58-2,6.33,6.33,0,0,0,1-2.1l-.57-.11.66-.3a4.8,4.8,0,0,0-.05-1.88l-.74-.15.62-.27A5.87,5.87,0,0,0,32,8.85a4.89,4.89,0,0,0-.72.86,6.35,6.35,0,0,0-1.08-1.6,5,5,0,0,0-1.33,5.11,13,13,0,0,0-4.78-1.39,11.21,11.21,0,0,0-1.42,0c-.26,0-.52.06-.77.1a14.17,14.17,0,0,0-8.68,5.22,7.81,7.81,0,0,0-1.41,3.22l.56-.44C14.72,18.11,17.27,16.1,20.35,15.25Z"/><path class="cls-1" d="M23.4,13.28a2.37,2.37,0,0,0-2.28,1.79,2.6,2.6,0,0,0-.07.56,2.3,2.3,0,0,0,.27,1.08,2.33,2.33,0,0,0,4.15,0,2.31,2.31,0,0,0,.28-1.08,2.1,2.1,0,0,0-.08-.56A2.35,2.35,0,0,0,23.4,13.28Zm1.93,2.35a1.88,1.88,0,0,1-.28,1,1.92,1.92,0,0,1-3.3,0,1.89,1.89,0,0,1-.29-1,2,2,0,0,1,.12-.65A1.94,1.94,0,0,1,23.4,13.7,1.92,1.92,0,0,1,25.21,15,1.78,1.78,0,0,1,25.33,15.63Z"/><path class="cls-1" d="M40.07,9.54,38.9.32c0-.43-.81-.43-.86,0L36.87,9.54A1.32,1.32,0,0,0,38,10.91l0,38.6h1V10.91A1.32,1.32,0,0,0,40.07,9.54Z"/><rect class="cls-2" width="50" height="50"/></g></g></svg>