<svg xmlns="http://www.w3.org/2000/svg" viewBox="0 0 50 50"><defs><style>.cls-1{fill:none;}</style></defs><title>setting-outline</title><g id="Layer_2" data-name="Layer 2"><g id="Layer_1-2" data-name="Layer 1"><rect class="cls-1" width="50" height="50"/><circle class="cls-1" cx="25" cy="25" r="7.04"/><path d="M50,29.67V20.33H44.79a20.13,20.13,0,0,0-2.5-6L46,10.62,39.38,4,35.69,7.71a20.13,20.13,0,0,0-6-2.5V0H20.33V5.21a20.13,20.13,0,0,0-6,2.5L10.62,4,4,10.62l3.69,3.69a20.13,20.13,0,0,0-2.5,6H0v9.34H5.21a20.13,20.13,0,0,0,2.5,6L4,39.38l6.6,6.6,3.69-3.69a20.13,20.13,0,0,0,6,2.5V50h9.34V44.79a20.13,20.13,0,0,0,6-2.5L39.38,46l6.6-6.6-3.69-3.69a20.13,20.13,0,0,0,2.5-6ZM25,32a7,7,0,1,1,7-7A7,7,0,0,1,25,32Z"/></g></g></svg>