<svg xmlns="http://www.w3.org/2000/svg" viewBox="0 0 50 50"><defs><style>.cls-1{fill:none;}</style></defs><title>share</title><g id="Layer_2" data-name="Layer 2"><g id="Layer_1-2" data-name="Layer 1"><rect class="cls-1" width="50" height="50"/><path d="M49.05,20.11,26.43,7.05a2.18,2.18,0,0,0-3.26,1.88v5.82a25.83,25.83,0,0,0-3.25,1.09,27.15,27.15,0,0,0-6.37,3.73,31.42,31.42,0,0,0-4.84,4.8,39.37,39.37,0,0,0-3.59,5.28,49.8,49.8,0,0,0-2.69,5.5C1.66,37,1,38.88.43,40.76c-.13.47-.27.93-.4,1.4a.86.86,0,0,0,1.51.74l.87-1.1a54.09,54.09,0,0,1,3.75-4.21,36.82,36.82,0,0,1,8.42-6.5A20.85,20.85,0,0,1,19,29.3a14.11,14.11,0,0,1,4.18-.48h0v5.76a2.17,2.17,0,0,0,3.26,1.88L49.05,23.4A1.9,1.9,0,0,0,49.05,20.11Z"/></g></g></svg>