<svg xmlns="http://www.w3.org/2000/svg" viewBox="0 0 50 50"><defs><style>.cls-1{fill:none;}.cls-2{fill:#0a0a0a;}</style></defs><title>shield</title><g id="Layer_2" data-name="Layer 2"><g id="Layer_1-2" data-name="Layer 1"><rect class="cls-1" width="50" height="50"/><path class="cls-2" d="M50,46.68,27.71,24.39l8-8A2.7,2.7,0,0,0,39,15.56L48.43,2.37A1.11,1.11,0,0,0,46.87.83L33.8,10.4A2.71,2.71,0,0,0,33,13.72l-8,8-8-8a2.71,2.71,0,0,0-.84-3.32L3.13.83A1.11,1.11,0,0,0,1.57,2.37L11,15.56a2.7,2.7,0,0,0,3.34.87l8,8L0,46.68l2.71,2.71L25,27.1,47.29,49.39Z"/></g></g></svg>