<svg xmlns="http://www.w3.org/2000/svg" viewBox="0 0 50 50"><defs><style>.cls-1{fill:none;}</style></defs><title>Tsh</title><g id="Layer_2" data-name="Layer 2"><g id="Layer_1-2" data-name="Layer 1"><rect class="cls-1" width="50" height="50"/><path d="M7,16.74H1V15.28H14.68v1.46H8.54V34.61H7Z"/><polygon points="9.51 35.58 6.05 35.58 6.05 17.71 0 17.71 0 14.31 15.65 14.31 15.65 17.71 9.51 17.71 9.51 35.58"/><path d="M22.61,34.11A7.07,7.07,0,0,1,20,32.26l.83-1A6,6,0,0,0,23,32.9a6.38,6.38,0,0,0,2.62.57,4.51,4.51,0,0,0,2.75-.8,2.52,2.52,0,0,0,1.08-2.12,2.74,2.74,0,0,0-1.17-2.34A11.53,11.53,0,0,0,26,27.09l-.55-.21a24.6,24.6,0,0,1-2.63-1.15,3.82,3.82,0,0,1-2.08-2.65,4.23,4.23,0,0,1-.05-.63A3.56,3.56,0,0,1,21,20.84a3.78,3.78,0,0,1,1-1.3,4.56,4.56,0,0,1,1.52-.84,5.52,5.52,0,0,1,1.87-.31,7.54,7.54,0,0,1,2.52.45,8.85,8.85,0,0,1,2.39,1.34l-.82,1a7.43,7.43,0,0,0-2-1.17,5.68,5.68,0,0,0-2.07-.41,4.64,4.64,0,0,0-1.24.17,3.84,3.84,0,0,0-1.08.51,2.6,2.6,0,0,0-.77.87A2.45,2.45,0,0,0,22,22.37a2.36,2.36,0,0,0,1.16,2.08,13,13,0,0,0,2.23,1.05c.19.06.33.12.43.16,1.32.53,2.16.88,2.53,1.08a4.3,4.3,0,0,1,2.11,2,4.06,4.06,0,0,1,.34,1.7,3.9,3.9,0,0,1-.7,2.28,4.41,4.41,0,0,1-1.88,1.52,6.55,6.55,0,0,1-2.62.51A7.69,7.69,0,0,1,22.61,34.11Z"/><path d="M25.63,35.69a8.68,8.68,0,0,1-3.4-.69,8.28,8.28,0,0,1-2.93-2.09l-.57-.62,2.12-2.53.74.89A4.89,4.89,0,0,0,23.4,32a5.53,5.53,0,0,0,2.23.48,3.57,3.57,0,0,0,2.18-.61,1.56,1.56,0,0,0,.69-1.34A1.79,1.79,0,0,0,27.72,29a9.7,9.7,0,0,0-2.11-1l-.52-.2a24.57,24.57,0,0,1-2.78-1.22,4.72,4.72,0,0,1-2.56-3.33,3.94,3.94,0,0,1-.07-.79,4.66,4.66,0,0,1,.47-2A4.9,4.9,0,0,1,21.4,18.8a5.9,5.9,0,0,1,1.83-1,7.5,7.5,0,0,1,5,.16,9.39,9.39,0,0,1,2.65,1.48l.76.6-2,2.57L28.9,22a6.83,6.83,0,0,0-1.76-1,4.21,4.21,0,0,0-2.7-.21,2.52,2.52,0,0,0-.79.38,1.54,1.54,0,0,0-.48.53,1.45,1.45,0,0,0-.17.72,1.4,1.4,0,0,0,.73,1.28,11.24,11.24,0,0,0,2,1l.46.17c1.36.55,2.2.9,2.59,1.11a5.22,5.22,0,0,1,2.55,2.43,5,5,0,0,1,.42,2.1,4.84,4.84,0,0,1-.87,2.84,5.31,5.31,0,0,1-2.28,1.84A7.42,7.42,0,0,1,25.63,35.69Z"/><path d="M37,18.5h1.28v7.88h9.48V18.5H49V34.61H47.76v-7H38.28v7H37Z"/><polygon points="50 35.58 46.79 35.58 46.79 28.57 39.24 28.57 39.24 35.58 36.04 35.58 36.04 17.53 39.24 17.53 39.24 25.42 46.79 25.42 46.79 17.53 50 17.53 50 35.58"/></g></g></svg>