<svg xmlns="http://www.w3.org/2000/svg" viewBox="0 0 50 50"><defs><style>.cls-1{fill:none;}</style></defs><title>Ugx</title><g id="Layer_2" data-name="Layer 2"><g id="Layer_1-2" data-name="Layer 1"><rect class="cls-1" width="50" height="50"/><path d="M4.66,33.09a5.9,5.9,0,0,1-2-1.36,6,6,0,0,1-1.31-2.2A8.78,8.78,0,0,1,.85,26.6V16.43H2.19V26.49a7,7,0,0,0,.64,3.05,4.67,4.67,0,0,0,1.77,2,5.07,5.07,0,0,0,2.66.69A4.75,4.75,0,0,0,11,30.7a6,6,0,0,0,1.4-4.21V16.43h1.34V26.6a8.71,8.71,0,0,1-.46,2.91,6.23,6.23,0,0,1-1.3,2.2,5.78,5.78,0,0,1-2,1.37,6.77,6.77,0,0,1-2.63.49A6.87,6.87,0,0,1,4.66,33.09Z"/><path d="M7.26,34.42a7.74,7.74,0,0,1-2.92-.54h0A6.88,6.88,0,0,1,2,32.32a6.79,6.79,0,0,1-1.5-2.5A9.5,9.5,0,0,1,0,26.6v-11H3.05V26.49a6.16,6.16,0,0,0,.54,2.68,3.77,3.77,0,0,0,1.46,1.64,4.07,4.07,0,0,0,2.21.57,3.89,3.89,0,0,0,3.06-1.26,5.17,5.17,0,0,0,1.18-3.63V15.58h3v11A9.57,9.57,0,0,1,14,29.79a6.85,6.85,0,0,1-1.49,2.5,6.55,6.55,0,0,1-2.33,1.58A7.86,7.86,0,0,1,7.26,34.42Z"/><path d="M32.42,26.38V31.7A7.19,7.19,0,0,1,30,33.06a9.42,9.42,0,0,1-3,.48,7.34,7.34,0,0,1-2.8-.52,6.32,6.32,0,0,1-3.67-3.7,8.56,8.56,0,0,1,0-5.85,6.6,6.6,0,0,1,1.41-2.28,6.3,6.3,0,0,1,2.2-1.49,7.52,7.52,0,0,1,2.84-.53,7.16,7.16,0,0,1,5.28,2.09l-.8.73A6.69,6.69,0,0,0,25,20.56a5.21,5.21,0,0,0-1.59.82,5.46,5.46,0,0,0-1.22,1.27,5.72,5.72,0,0,0-.79,1.69,7.38,7.38,0,0,0-.27,2,6.7,6.7,0,0,0,.72,3.14,5.24,5.24,0,0,0,2.05,2.15,5.93,5.93,0,0,0,3,.77,6.62,6.62,0,0,0,4.36-1.34V27.45H26.6V26.38Z"/><path d="M26.94,34.39a8.44,8.44,0,0,1-3.12-.58,7.6,7.6,0,0,1-2.5-1.62,7.31,7.31,0,0,1-1.64-2.57,8.82,8.82,0,0,1-.58-3.25,9,9,0,0,1,.56-3.2,7.56,7.56,0,0,1,1.6-2.57,7.25,7.25,0,0,1,2.49-1.68,8.2,8.2,0,0,1,3.16-.6,8,8,0,0,1,5.89,2.34l.63.64-2.06,1.84-.57-.54a5.39,5.39,0,0,0-3.9-1.47,5.45,5.45,0,0,0-1.63.24,4.57,4.57,0,0,0-1.34.68,4.74,4.74,0,0,0-1.7,2.52,6.53,6.53,0,0,0-.24,1.8,5.89,5.89,0,0,0,.62,2.74,4.36,4.36,0,0,0,1.72,1.81,5.09,5.09,0,0,0,2.61.66,6.17,6.17,0,0,0,3.51-.91V28.3h-4.7V25.53h7.52v6.55l-.29.26a8.11,8.11,0,0,1-2.72,1.53A10.5,10.5,0,0,1,26.94,34.39Z"/><path d="M42.7,27.33h0l-4.31,6.12H37l4.95-7.08L37,19.27h1.32l4.34,6.17h0L47,19.27h1.35l-4.92,7.1,5,7.08H47Z"/><polygon points="50 34.3 46.56 34.3 42.68 28.78 38.8 34.3 35.36 34.3 40.91 26.37 35.38 18.41 38.78 18.41 42.68 23.97 46.54 18.41 49.95 18.41 44.45 26.37 50 34.3"/></g></g></svg>