<svg xmlns="http://www.w3.org/2000/svg" viewBox="0 0 50 50"><defs><style>.cls-1{fill:none;}.cls-2{fill:#0a0a0a;}</style></defs><title>unlocked</title><g id="Layer_2" data-name="Layer 2"><g id="Layer_1-2" data-name="Layer 1"><rect class="cls-1" width="50" height="50"/><path class="cls-2" d="M40.61,16.58h-.29V8.15A8.16,8.16,0,0,0,32.17,0H17.83A8.16,8.16,0,0,0,9.68,8.15v4.56h4.88V8.15a3.28,3.28,0,0,1,3.27-3.28H32.17a3.28,3.28,0,0,1,3.27,3.28v8.43h-26A3.42,3.42,0,0,0,6,20V46.59A3.41,3.41,0,0,0,9.39,50H40.61A3.41,3.41,0,0,0,44,46.59V20A3.42,3.42,0,0,0,40.61,16.58Z"/></g></g></svg>