<svg xmlns="http://www.w3.org/2000/svg" viewBox="0 0 50 45.9"><defs><style>.cls-1{fill:#212121;}</style></defs><title>wifi-outline</title><g id="Layer_2" data-name="Layer 2"><g id="Layer_1-2" data-name="Layer 1"><path class="cls-1" d="M25,35.51a5.2,5.2,0,1,0,5.19,5.2A5.2,5.2,0,0,0,25,35.51Zm0,8.68a3.49,3.49,0,1,1,3.48-3.48A3.48,3.48,0,0,1,25,44.19Z"/><path class="cls-1" d="M25,24.51a17.72,17.72,0,0,0-12.62,5.27l.89,1.54a16,16,0,0,1,23.46,0l.89-1.54A17.72,17.72,0,0,0,25,24.51Z"/><path class="cls-1" d="M6.14,19,7,20.48a28.86,28.86,0,0,1,36,0l.86-1.5A30.57,30.57,0,0,0,6.14,19Z"/><path class="cls-1" d="M25,0A41.53,41.53,0,0,0,0,8.34l.86,1.5a39.9,39.9,0,0,1,48.28,0L50,8.34A41.53,41.53,0,0,0,25,0Z"/></g></g></svg>