<svg xmlns="http://www.w3.org/2000/svg" viewBox="0 0 50 50"><defs><style>.cls-1{fill:none;}</style></defs><title>Zar</title><g id="Layer_2" data-name="Layer 2"><g id="Layer_1-2" data-name="Layer 1"><rect class="cls-1" width="50" height="50"/><polygon points="15.07 17.02 15.23 16.77 15.23 14.18 0.64 14.18 0.64 17.63 10.38 17.63 0 33.24 0 35.82 15.33 35.82 15.33 32.37 4.83 32.37 15.07 17.02"/><path d="M25.29,19.09l-6.4,16.73h3.35l1.48-3.9h5.77L31,35.82h3.37L27.88,19.09Zm-.42,9.74,1.72-4.58,1.74,4.58Z"/><path d="M45.57,29.41a5,5,0,0,0,2-1.27,5.13,5.13,0,0,0,1.3-3.69,6.24,6.24,0,0,0-.33-2.07,4.73,4.73,0,0,0-1.06-1.73,4.63,4.63,0,0,0-1.86-1.17,7.18,7.18,0,0,0-2.46-.39h-6V35.82h3.13v-6h1.84l4.08,6H50Zm-5.35-7.24h2.83a2.93,2.93,0,0,1,2,.58,2.15,2.15,0,0,1,.6,1.69,2.67,2.67,0,0,1-.16,1,1.85,1.85,0,0,1-.44.7,2,2,0,0,1-.82.46,4.65,4.65,0,0,1-1.48.2h-2.5Z"/></g></g></svg>